<?plantuml 1.2026.2beta3?><svg xmlns="http://www.w3.org/2000/svg" xmlns:xlink="http://www.w3.org/1999/xlink" contentStyleType="text/css" data-diagram-type="ACTIVITY" height="527px" preserveAspectRatio="none" style="width:187px;height:527px;background:#FFFFFF;" version="1.1" viewBox="0 0 187 527" width="187px" zoomAndPan="magnify"><defs/><g><ellipse cx="89.8066" cy="20" fill="#222222" rx="10" ry="10" style="stroke:#222222;stroke-width:1;"/><rect fill="#F1F1F1" height="33.9688" rx="12.5" ry="12.5" style="stroke:#181818;stroke-width:0.5;" width="131.9844" x="23.8145" y="50"/><text fill="#000000" font-family="sans-serif" font-size="12" lengthAdjust="spacing" textLength="111.9844" x="33.8145" y="71.1387">Selecionar arquivo</text><rect fill="#F1F1F1" height="33.9688" rx="12.5" ry="12.5" style="stroke:#181818;stroke-width:0.5;" width="157.6133" x="11" y="103.9688"/><text fill="#000000" font-family="sans-serif" font-size="12" lengthAdjust="spacing" textLength="137.6133" x="21" y="125.1074">Validar tipo e tamanho</text><rect fill="#F1F1F1" height="33.9688" rx="12.5" ry="12.5" style="stroke:#181818;stroke-width:0.5;" width="82.3086" x="48.6523" y="206.3398"/><text fill="#000000" font-family="sans-serif" font-size="12" lengthAdjust="spacing" textLength="62.3086" x="58.6523" y="227.4785">Exibir erro</text><ellipse cx="89.8066" cy="279.8242" fill="none" rx="11" ry="11" style="stroke:#222222;stroke-width:1;"/><ellipse cx="89.8066" cy="279.8242" fill="#222222" rx="6" ry="6" style="stroke:#222222;stroke-width:1;"/><polygon fill="#F1F1F1" points="42.439,157.9375,137.1743,157.9375,149.1743,169.9375,137.1743,181.9375,42.439,181.9375,30.439,169.9375,42.439,157.9375" style="stroke:#181818;stroke-width:0.5;"/><text fill="#000000" font-family="sans-serif" font-size="11" lengthAdjust="spacing" textLength="20.7539" x="93.8066" y="192.1479">Sim</text><text fill="#000000" font-family="sans-serif" font-size="11" lengthAdjust="spacing" textLength="94.7354" x="42.439" y="173.7456">Arquivo inv&#225;lido?</text><rect fill="#F1F1F1" height="33.9688" rx="12.5" ry="12.5" style="stroke:#181818;stroke-width:0.5;" width="106.7949" x="36.4092" y="332.8242"/><text fill="#000000" font-family="sans-serif" font-size="12" lengthAdjust="spacing" textLength="86.7949" x="46.4092" y="353.9629">Salvar arquivo</text><rect fill="#F1F1F1" height="33.9688" rx="12.5" ry="12.5" style="stroke:#181818;stroke-width:0.5;" width="146.5508" x="16.5313" y="386.793"/><text fill="#000000" font-family="sans-serif" font-size="12" lengthAdjust="spacing" textLength="126.5508" x="26.5313" y="407.9316">Registrar documento</text><rect fill="#F1F1F1" height="33.9688" rx="12.5" ry="12.5" style="stroke:#181818;stroke-width:0.5;" width="116.375" x="31.6191" y="440.7617"/><text fill="#000000" font-family="sans-serif" font-size="12" lengthAdjust="spacing" textLength="96.375" x="41.6191" y="461.9004">Confirmar envio</text><ellipse cx="89.8066" cy="505.7305" fill="none" rx="11" ry="11" style="stroke:#222222;stroke-width:1;"/><ellipse cx="89.8066" cy="505.7305" fill="#222222" rx="6" ry="6" style="stroke:#222222;stroke-width:1;"/><line style="stroke:#181818;stroke-width:1;" x1="89.8066" x2="89.8066" y1="30" y2="50"/><polygon fill="#181818" points="85.8066,40,89.8066,50,93.8066,40,89.8066,44" style="stroke:#181818;stroke-width:1;"/><line style="stroke:#181818;stroke-width:1;" x1="89.8066" x2="89.8066" y1="83.9688" y2="103.9688"/><polygon fill="#181818" points="85.8066,93.9688,89.8066,103.9688,93.8066,93.9688,89.8066,97.9688" style="stroke:#181818;stroke-width:1;"/><line style="stroke:#181818;stroke-width:1;" x1="89.8066" x2="89.8066" y1="240.3086" y2="268.8242"/><polygon fill="#181818" points="85.8066,258.8242,89.8066,268.8242,93.8066,258.8242,89.8066,262.8242" style="stroke:#181818;stroke-width:1;"/><line style="stroke:#181818;stroke-width:1;" x1="89.8066" x2="89.8066" y1="181.9375" y2="206.3398"/><polygon fill="#181818" points="85.8066,196.3398,89.8066,206.3398,93.8066,196.3398,89.8066,200.3398" style="stroke:#181818;stroke-width:1;"/><line style="stroke:#181818;stroke-width:1;" x1="149.1743" x2="161.1743" y1="169.9375" y2="169.9375"/><polygon fill="#181818" points="157.1743,238.8242,161.1743,248.8242,165.1743,238.8242,161.1743,242.8242" style="stroke:#181818;stroke-width:1;"/><line style="stroke:#181818;stroke-width:1;" x1="161.1743" x2="161.1743" y1="169.9375" y2="312.8242"/><line style="stroke:#181818;stroke-width:1;" x1="161.1743" x2="89.8066" y1="312.8242" y2="312.8242"/><line style="stroke:#181818;stroke-width:1;" x1="89.8066" x2="89.8066" y1="312.8242" y2="332.8242"/><polygon fill="#181818" points="85.8066,322.8242,89.8066,332.8242,93.8066,322.8242,89.8066,326.8242" style="stroke:#181818;stroke-width:1;"/><line style="stroke:#181818;stroke-width:1;" x1="89.8066" x2="89.8066" y1="137.9375" y2="157.9375"/><polygon fill="#181818" points="85.8066,147.9375,89.8066,157.9375,93.8066,147.9375,89.8066,151.9375" style="stroke:#181818;stroke-width:1;"/><line style="stroke:#181818;stroke-width:1;" x1="89.8066" x2="89.8066" y1="366.793" y2="386.793"/><polygon fill="#181818" points="85.8066,376.793,89.8066,386.793,93.8066,376.793,89.8066,380.793" style="stroke:#181818;stroke-width:1;"/><line style="stroke:#181818;stroke-width:1;" x1="89.8066" x2="89.8066" y1="420.7617" y2="440.7617"/><polygon fill="#181818" points="85.8066,430.7617,89.8066,440.7617,93.8066,430.7617,89.8066,434.7617" style="stroke:#181818;stroke-width:1;"/><line style="stroke:#181818;stroke-width:1;" x1="89.8066" x2="89.8066" y1="474.7305" y2="494.7305"/><polygon fill="#181818" points="85.8066,484.7305,89.8066,494.7305,93.8066,484.7305,89.8066,488.7305" style="stroke:#181818;stroke-width:1;"/><?plantuml-src LSsn3S9030NG_gPmcQmG2eGG2n29tkGSOYbd1ySviGwpi1YEg6YV__TV7SrJrzDC0wkW0Tfpuwg7rDrmvXpYl2WGE1QKAGw9HsXElnYmrCyxSdfimISIQ7ekRGBeBY--im6PHGTWTLqIIUOnnHxEzM_hIWzUtSAo3biXyLtFAYDR2IMf7B8_-G80?></g></svg>