<?plantuml 1.2026.2beta3?><svg xmlns="http://www.w3.org/2000/svg" xmlns:xlink="http://www.w3.org/1999/xlink" contentStyleType="text/css" data-diagram-type="ACTIVITY" height="342px" preserveAspectRatio="none" style="width:200px;height:342px;background:#FFFFFF;" version="1.1" viewBox="0 0 200 342" width="200px" zoomAndPan="magnify"><defs/><g><ellipse cx="88.292" cy="20" fill="#222222" rx="10" ry="10" style="stroke:#222222;stroke-width:1;"/><rect fill="#F1F1F1" height="33.9688" rx="12.5" ry="12.5" style="stroke:#181818;stroke-width:0.5;" width="154.584" x="11" y="50"/><text fill="#000000" font-family="sans-serif" font-size="12" lengthAdjust="spacing" textLength="134.584" x="21" y="71.1387">Selecionar documento</text><rect fill="#F1F1F1" height="33.9688" rx="12.5" ry="12.5" style="stroke:#181818;stroke-width:0.5;" width="146.7383" x="14.9229" y="103.9688"/><text fill="#000000" font-family="sans-serif" font-size="12" lengthAdjust="spacing" textLength="126.7383" x="24.9229" y="125.1074">Solicitar confirma&#231;&#227;o</text><polygon fill="#F1F1F1" points="53.3718,157.9375,123.2122,157.9375,135.2122,169.9375,123.2122,181.9375,53.3718,181.9375,41.3718,169.9375,53.3718,157.9375" style="stroke:#181818;stroke-width:0.5;"/><text fill="#000000" font-family="sans-serif" font-size="11" lengthAdjust="spacing" textLength="69.8403" x="53.3718" y="173.7456">Confirmado?</text><text fill="#000000" font-family="sans-serif" font-size="11" lengthAdjust="spacing" textLength="21.6992" x="135.2122" y="167.3433">N&#227;o</text><ellipse cx="178.9114" cy="169.9375" fill="none" rx="11" ry="11" style="stroke:#222222;stroke-width:1;"/><ellipse cx="178.9114" cy="169.9375" fill="#222222" rx="6" ry="6" style="stroke:#222222;stroke-width:1;"/><rect fill="#F1F1F1" height="33.9688" rx="12.5" ry="12.5" style="stroke:#181818;stroke-width:0.5;" width="132.1895" x="22.1973" y="201.9375"/><text fill="#000000" font-family="sans-serif" font-size="12" lengthAdjust="spacing" textLength="112.1895" x="32.1973" y="223.0762">Excluir documento</text><rect fill="#F1F1F1" height="33.9688" rx="12.5" ry="12.5" style="stroke:#181818;stroke-width:0.5;" width="136.5781" x="20.0029" y="255.9063"/><text fill="#000000" font-family="sans-serif" font-size="12" lengthAdjust="spacing" textLength="116.5781" x="30.0029" y="277.0449">Confirmar exclus&#227;o</text><ellipse cx="88.292" cy="320.875" fill="none" rx="11" ry="11" style="stroke:#222222;stroke-width:1;"/><ellipse cx="88.292" cy="320.875" fill="#222222" rx="6" ry="6" style="stroke:#222222;stroke-width:1;"/><line style="stroke:#181818;stroke-width:1;" x1="88.292" x2="88.292" y1="30" y2="50"/><polygon fill="#181818" points="84.292,40,88.292,50,92.292,40,88.292,44" style="stroke:#181818;stroke-width:1;"/><line style="stroke:#181818;stroke-width:1;" x1="88.292" x2="88.292" y1="83.9688" y2="103.9688"/><polygon fill="#181818" points="84.292,93.9688,88.292,103.9688,92.292,93.9688,88.292,97.9688" style="stroke:#181818;stroke-width:1;"/><line style="stroke:#181818;stroke-width:1;" x1="88.292" x2="88.292" y1="181.9375" y2="201.9375"/><polygon fill="#181818" points="84.292,191.9375,88.292,201.9375,92.292,191.9375,88.292,195.9375" style="stroke:#181818;stroke-width:1;"/><line style="stroke:#181818;stroke-width:1;" x1="135.2122" x2="167.9114" y1="169.9375" y2="169.9375"/><polygon fill="#181818" points="157.9114,165.9375,167.9114,169.9375,157.9114,173.9375,161.9114,169.9375" style="stroke:#181818;stroke-width:1;"/><line style="stroke:#181818;stroke-width:1;" x1="88.292" x2="88.292" y1="137.9375" y2="157.9375"/><polygon fill="#181818" points="84.292,147.9375,88.292,157.9375,92.292,147.9375,88.292,151.9375" style="stroke:#181818;stroke-width:1;"/><line style="stroke:#181818;stroke-width:1;" x1="88.292" x2="88.292" y1="235.9063" y2="255.9063"/><polygon fill="#181818" points="84.292,245.9063,88.292,255.9063,92.292,245.9063,88.292,249.9063" style="stroke:#181818;stroke-width:1;"/><line style="stroke:#181818;stroke-width:1;" x1="88.292" x2="88.292" y1="289.875" y2="309.875"/><polygon fill="#181818" points="84.292,299.875,88.292,309.875,92.292,299.875,88.292,303.875" style="stroke:#181818;stroke-width:1;"/><?plantuml-src Aov9B2hXiWfEpKbDpipFIonIICbFBirDpIl9jmOAv-Ta9cS2bIWav-UbPHRb9XvUVdWnK8OhCqr1mnagbf9lhwbGaf6Qfw3X1vJLv59GA2x9B-1ApKl9JEFYidAjICufpKGr6QQtI24L95iCDXMa2m00?></g></svg>