<?plantuml 1.2026.2beta3?><svg xmlns="http://www.w3.org/2000/svg" xmlns:xlink="http://www.w3.org/1999/xlink" contentStyleType="text/css" data-diagram-type="ACTIVITY" height="298px" preserveAspectRatio="none" style="width:231px;height:298px;background:#FFFFFF;" version="1.1" viewBox="0 0 231 298" width="231px" zoomAndPan="magnify"><defs/><g><ellipse cx="115.7842" cy="20" fill="#222222" rx="10" ry="10" style="stroke:#222222;stroke-width:1;"/><rect fill="#F1F1F1" height="33.9688" rx="12.5" ry="12.5" style="stroke:#181818;stroke-width:0.5;" width="154.584" x="38.4922" y="50"/><text fill="#000000" font-family="sans-serif" font-size="12" lengthAdjust="spacing" textLength="134.584" x="48.4922" y="71.1387">Selecionar documento</text><rect fill="#F1F1F1" height="33.9688" rx="12.5" ry="12.5" style="stroke:#181818;stroke-width:0.5;" width="139.3086" x="46.1299" y="103.9688"/><text fill="#000000" font-family="sans-serif" font-size="12" lengthAdjust="spacing" textLength="119.3086" x="56.1299" y="125.1074">Selecionar empresa</text><rect fill="#F1F1F1" height="33.9688" rx="12.5" ry="12.5" style="stroke:#181818;stroke-width:0.5;" width="209.5684" x="11" y="157.9375"/><text fill="#000000" font-family="sans-serif" font-size="12" lengthAdjust="spacing" textLength="189.5684" x="21" y="179.0762">Associar documento &#224; empresa</text><rect fill="#F1F1F1" height="33.9688" rx="12.5" ry="12.5" style="stroke:#181818;stroke-width:0.5;" width="104.4277" x="63.5703" y="211.9063"/><text fill="#000000" font-family="sans-serif" font-size="12" lengthAdjust="spacing" textLength="84.4277" x="73.5703" y="233.0449">Salvar v&#237;nculo</text><ellipse cx="115.7842" cy="276.875" fill="none" rx="11" ry="11" style="stroke:#222222;stroke-width:1;"/><ellipse cx="115.7842" cy="276.875" fill="#222222" rx="6" ry="6" style="stroke:#222222;stroke-width:1;"/><line style="stroke:#181818;stroke-width:1;" x1="115.7842" x2="115.7842" y1="30" y2="50"/><polygon fill="#181818" points="111.7842,40,115.7842,50,119.7842,40,115.7842,44" style="stroke:#181818;stroke-width:1;"/><line style="stroke:#181818;stroke-width:1;" x1="115.7842" x2="115.7842" y1="83.9688" y2="103.9688"/><polygon fill="#181818" points="111.7842,93.9688,115.7842,103.9688,119.7842,93.9688,115.7842,97.9688" style="stroke:#181818;stroke-width:1;"/><line style="stroke:#181818;stroke-width:1;" x1="115.7842" x2="115.7842" y1="137.9375" y2="157.9375"/><polygon fill="#181818" points="111.7842,147.9375,115.7842,157.9375,119.7842,147.9375,115.7842,151.9375" style="stroke:#181818;stroke-width:1;"/><line style="stroke:#181818;stroke-width:1;" x1="115.7842" x2="115.7842" y1="191.9063" y2="211.9063"/><polygon fill="#181818" points="111.7842,201.9063,115.7842,211.9063,119.7842,201.9063,115.7842,205.9063" style="stroke:#181818;stroke-width:1;"/><line style="stroke:#181818;stroke-width:1;" x1="115.7842" x2="115.7842" y1="245.875" y2="265.875"/><polygon fill="#181818" points="111.7842,255.875,115.7842,265.875,119.7842,255.875,115.7842,259.875" style="stroke:#181818;stroke-width:1;"/><?plantuml-src Aov9B2hXiWfEpKbDpipFIonIICbFBirDpIl9jqOHJiqjA4ejJWGAEXONvoTd8gjKEBm0IJuuCQSCA5jsU6rUScaEq9ZYalm20000?></g></svg>