<?plantuml 1.2026.2beta3?><svg xmlns="http://www.w3.org/2000/svg" xmlns:xlink="http://www.w3.org/1999/xlink" contentStyleType="text/css" data-diagram-type="ACTIVITY" height="527px" preserveAspectRatio="none" style="width:236px;height:527px;background:#FFFFFF;" version="1.1" viewBox="0 0 236 527" width="236px" zoomAndPan="magnify"><defs/><g><ellipse cx="114.4365" cy="20" fill="#222222" rx="10" ry="10" style="stroke:#222222;stroke-width:1;"/><rect fill="#F1F1F1" height="33.9688" rx="12.5" ry="12.5" style="stroke:#181818;stroke-width:0.5;" width="184.8418" x="22.0156" y="50"/><text fill="#000000" font-family="sans-serif" font-size="12" lengthAdjust="spacing" textLength="164.8418" x="32.0156" y="71.1387">Receber dados da empresa</text><rect fill="#F1F1F1" height="33.9688" rx="12.5" ry="12.5" style="stroke:#181818;stroke-width:0.5;" width="188.7207" x="20.0762" y="103.9688"/><text fill="#000000" font-family="sans-serif" font-size="12" lengthAdjust="spacing" textLength="168.7207" x="30.0762" y="125.1074">Validar campos obrigat&#243;rios</text><rect fill="#F1F1F1" height="33.9688" rx="12.5" ry="12.5" style="stroke:#181818;stroke-width:0.5;" width="94.0801" x="67.3965" y="157.9375"/><text fill="#000000" font-family="sans-serif" font-size="12" lengthAdjust="spacing" textLength="74.0801" x="77.3965" y="179.0762">Validar CNPJ</text><rect fill="#F1F1F1" height="33.9688" rx="12.5" ry="12.5" style="stroke:#181818;stroke-width:0.5;" width="171.9102" x="28.4814" y="260.3086"/><text fill="#000000" font-family="sans-serif" font-size="12" lengthAdjust="spacing" textLength="151.9102" x="38.4814" y="281.4473">Exibir mensagem de erro</text><ellipse cx="114.4365" cy="333.793" fill="none" rx="11" ry="11" style="stroke:#222222;stroke-width:1;"/><ellipse cx="114.4365" cy="333.793" fill="#222222" rx="6" ry="6" style="stroke:#222222;stroke-width:1;"/><polygon fill="#F1F1F1" points="80.3381,211.9063,148.5349,211.9063,160.5349,223.9063,148.5349,235.9063,80.3381,235.9063,68.3381,223.9063,80.3381,211.9063" style="stroke:#181818;stroke-width:0.5;"/><text fill="#000000" font-family="sans-serif" font-size="11" lengthAdjust="spacing" textLength="21.6992" x="118.4365" y="246.1167">N&#227;o</text><text fill="#000000" font-family="sans-serif" font-size="11" lengthAdjust="spacing" textLength="68.1968" x="80.3381" y="227.7144">CNPJ v&#225;lido?</text><rect fill="#F1F1F1" height="33.9688" rx="12.5" ry="12.5" style="stroke:#181818;stroke-width:0.5;" width="173.2109" x="27.8311" y="386.793"/><text fill="#000000" font-family="sans-serif" font-size="12" lengthAdjust="spacing" textLength="153.2109" x="37.8311" y="407.9316">Salvar empresa no banco</text><rect fill="#F1F1F1" height="33.9688" rx="12.5" ry="12.5" style="stroke:#181818;stroke-width:0.5;" width="206.873" x="11" y="440.7617"/><text fill="#000000" font-family="sans-serif" font-size="12" lengthAdjust="spacing" textLength="186.873" x="21" y="461.9004">Exibir confirma&#231;&#227;o de cadastro</text><ellipse cx="114.4365" cy="505.7305" fill="none" rx="11" ry="11" style="stroke:#222222;stroke-width:1;"/><ellipse cx="114.4365" cy="505.7305" fill="#222222" rx="6" ry="6" style="stroke:#222222;stroke-width:1;"/><line style="stroke:#181818;stroke-width:1;" x1="114.4365" x2="114.4365" y1="30" y2="50"/><polygon fill="#181818" points="110.4365,40,114.4365,50,118.4365,40,114.4365,44" style="stroke:#181818;stroke-width:1;"/><line style="stroke:#181818;stroke-width:1;" x1="114.4365" x2="114.4365" y1="83.9688" y2="103.9688"/><polygon fill="#181818" points="110.4365,93.9688,114.4365,103.9688,118.4365,93.9688,114.4365,97.9688" style="stroke:#181818;stroke-width:1;"/><line style="stroke:#181818;stroke-width:1;" x1="114.4365" x2="114.4365" y1="137.9375" y2="157.9375"/><polygon fill="#181818" points="110.4365,147.9375,114.4365,157.9375,118.4365,147.9375,114.4365,151.9375" style="stroke:#181818;stroke-width:1;"/><line style="stroke:#181818;stroke-width:1;" x1="114.4365" x2="114.4365" y1="294.2773" y2="322.793"/><polygon fill="#181818" points="110.4365,312.793,114.4365,322.793,118.4365,312.793,114.4365,316.793" style="stroke:#181818;stroke-width:1;"/><line style="stroke:#181818;stroke-width:1;" x1="114.4365" x2="114.4365" y1="235.9063" y2="260.3086"/><polygon fill="#181818" points="110.4365,250.3086,114.4365,260.3086,118.4365,250.3086,114.4365,254.3086" style="stroke:#181818;stroke-width:1;"/><line style="stroke:#181818;stroke-width:1;" x1="160.5349" x2="210.3916" y1="223.9063" y2="223.9063"/><polygon fill="#181818" points="206.3916,292.793,210.3916,302.793,214.3916,292.793,210.3916,296.793" style="stroke:#181818;stroke-width:1;"/><line style="stroke:#181818;stroke-width:1;" x1="210.3916" x2="210.3916" y1="223.9063" y2="366.793"/><line style="stroke:#181818;stroke-width:1;" x1="210.3916" x2="114.4365" y1="366.793" y2="366.793"/><line style="stroke:#181818;stroke-width:1;" x1="114.4365" x2="114.4365" y1="366.793" y2="386.793"/><polygon fill="#181818" points="110.4365,376.793,114.4365,386.793,118.4365,376.793,114.4365,380.793" style="stroke:#181818;stroke-width:1;"/><line style="stroke:#181818;stroke-width:1;" x1="114.4365" x2="114.4365" y1="191.9063" y2="211.9063"/><polygon fill="#181818" points="110.4365,201.9063,114.4365,211.9063,118.4365,201.9063,114.4365,205.9063" style="stroke:#181818;stroke-width:1;"/><line style="stroke:#181818;stroke-width:1;" x1="114.4365" x2="114.4365" y1="420.7617" y2="440.7617"/><polygon fill="#181818" points="110.4365,430.7617,114.4365,440.7617,118.4365,430.7617,114.4365,434.7617" style="stroke:#181818;stroke-width:1;"/><line style="stroke:#181818;stroke-width:1;" x1="114.4365" x2="114.4365" y1="474.7305" y2="494.7305"/><polygon fill="#181818" points="110.4365,484.7305,114.4365,494.7305,118.4365,484.7305,114.4365,488.7305" style="stroke:#181818;stroke-width:1;"/><?plantuml-src JSwn2W8n383XlK-HyUuLUeE3k3WSek2UjhcpS6sEj1o-ZZZu03v2NymM55n2u0yVIHabAtqcIuO473fETGA5LIZXeFGL5-zGm69OQsCZViPStk8v_UNzU3eEIla9khR2LXuryAw7VAC8tLYUt2i0VRXxumK2nOGp1N049C93RIdpgYWwFocbBxXirVq-0f71OBJrxYTOZfENWELLwSPOT9Xoenhq0G00?></g></svg>