<?plantuml 1.2026.2beta3?><svg xmlns="http://www.w3.org/2000/svg" xmlns:xlink="http://www.w3.org/1999/xlink" contentStyleType="text/css" data-diagram-type="ACTIVITY" height="244px" preserveAspectRatio="none" style="width:221px;height:244px;background:#FFFFFF;" version="1.1" viewBox="0 0 221 244" width="221px" zoomAndPan="magnify"><defs/><g><ellipse cx="110.6396" cy="20" fill="#222222" rx="10" ry="10" style="stroke:#222222;stroke-width:1;"/><rect fill="#F1F1F1" height="33.9688" rx="12.5" ry="12.5" style="stroke:#181818;stroke-width:0.5;" width="199.2793" x="11" y="50"/><text fill="#000000" font-family="sans-serif" font-size="12" lengthAdjust="spacing" textLength="179.2793" x="21" y="71.1387">Consultar empresas no banco</text><rect fill="#F1F1F1" height="33.9688" rx="12.5" ry="12.5" style="stroke:#181818;stroke-width:0.5;" width="135.8633" x="42.708" y="103.9688"/><text fill="#000000" font-family="sans-serif" font-size="12" lengthAdjust="spacing" textLength="115.8633" x="52.708" y="125.1074">Ordenar resultados</text><rect fill="#F1F1F1" height="33.9688" rx="12.5" ry="12.5" style="stroke:#181818;stroke-width:0.5;" width="164.1875" x="28.5459" y="157.9375"/><text fill="#000000" font-family="sans-serif" font-size="12" lengthAdjust="spacing" textLength="144.1875" x="38.5459" y="179.0762">Exibir lista de empresas</text><ellipse cx="110.6396" cy="222.9063" fill="none" rx="11" ry="11" style="stroke:#222222;stroke-width:1;"/><ellipse cx="110.6396" cy="222.9063" fill="#222222" rx="6" ry="6" style="stroke:#222222;stroke-width:1;"/><line style="stroke:#181818;stroke-width:1;" x1="110.6396" x2="110.6396" y1="30" y2="50"/><polygon fill="#181818" points="106.6396,40,110.6396,50,114.6396,40,110.6396,44" style="stroke:#181818;stroke-width:1;"/><line style="stroke:#181818;stroke-width:1;" x1="110.6396" x2="110.6396" y1="83.9688" y2="103.9688"/><polygon fill="#181818" points="106.6396,93.9688,110.6396,103.9688,114.6396,93.9688,110.6396,97.9688" style="stroke:#181818;stroke-width:1;"/><line style="stroke:#181818;stroke-width:1;" x1="110.6396" x2="110.6396" y1="137.9375" y2="157.9375"/><polygon fill="#181818" points="106.6396,147.9375,110.6396,157.9375,114.6396,147.9375,110.6396,151.9375" style="stroke:#181818;stroke-width:1;"/><line style="stroke:#181818;stroke-width:1;" x1="110.6396" x2="110.6396" y1="191.9063" y2="211.9063"/><polygon fill="#181818" points="106.6396,201.9063,110.6396,211.9063,114.6396,201.9063,110.6396,205.9063" style="stroke:#181818;stroke-width:1;"/><?plantuml-src Aov9B2hXidBEpoikpG6o5L9p2ufIYnEB5VBo5P8IyvBphRci_8jIKlE0Sa09aAAK_6AWe6j5Pb9caK9EPd59ea9AAboZDLTnINu10000?></g></svg>