<?plantuml 1.2026.2beta3?><svg xmlns="http://www.w3.org/2000/svg" xmlns:xlink="http://www.w3.org/1999/xlink" contentStyleType="text/css" data-diagram-type="ACTIVITY" height="581px" preserveAspectRatio="none" style="width:194px;height:581px;background:#FFFFFF;" version="1.1" viewBox="0 0 194 581" width="194px" zoomAndPan="magnify"><defs/><g><ellipse cx="97.1074" cy="20" fill="#222222" rx="10" ry="10" style="stroke:#222222;stroke-width:1;"/><rect fill="#F1F1F1" height="33.9688" rx="12.5" ry="12.5" style="stroke:#181818;stroke-width:0.5;" width="139.3086" x="27.4531" y="50"/><text fill="#000000" font-family="sans-serif" font-size="12" lengthAdjust="spacing" textLength="119.3086" x="37.4531" y="71.1387">Selecionar empresa</text><rect fill="#F1F1F1" height="33.9688" rx="12.5" ry="12.5" style="stroke:#181818;stroke-width:0.5;" width="153.3008" x="20.457" y="103.9688"/><text fill="#000000" font-family="sans-serif" font-size="12" lengthAdjust="spacing" textLength="133.3008" x="30.457" y="125.1074">Carregar dados atuais</text><rect fill="#F1F1F1" height="33.9688" rx="12.5" ry="12.5" style="stroke:#181818;stroke-width:0.5;" width="170.7324" x="11.7412" y="157.9375"/><text fill="#000000" font-family="sans-serif" font-size="12" lengthAdjust="spacing" textLength="150.7324" x="21.7412" y="179.0762">Editar dados da empresa</text><rect fill="#F1F1F1" height="33.9688" rx="12.5" ry="12.5" style="stroke:#181818;stroke-width:0.5;" width="112.8008" x="40.707" y="211.9063"/><text fill="#000000" font-family="sans-serif" font-size="12" lengthAdjust="spacing" textLength="92.8008" x="50.707" y="233.0449">Validar campos</text><rect fill="#F1F1F1" height="33.9688" rx="12.5" ry="12.5" style="stroke:#181818;stroke-width:0.5;" width="82.3086" x="55.9531" y="314.2773"/><text fill="#000000" font-family="sans-serif" font-size="12" lengthAdjust="spacing" textLength="62.3086" x="65.9531" y="335.416">Exibir erro</text><ellipse cx="97.1074" cy="387.7617" fill="none" rx="11" ry="11" style="stroke:#222222;stroke-width:1;"/><ellipse cx="97.1074" cy="387.7617" fill="#222222" rx="6" ry="6" style="stroke:#222222;stroke-width:1;"/><polygon fill="#F1F1F1" points="55.7097,265.875,138.5051,265.875,150.5051,277.875,138.5051,289.875,55.7097,289.875,43.7097,277.875,55.7097,265.875" style="stroke:#181818;stroke-width:0.5;"/><text fill="#000000" font-family="sans-serif" font-size="11" lengthAdjust="spacing" textLength="21.6992" x="101.1074" y="300.0854">N&#227;o</text><text fill="#000000" font-family="sans-serif" font-size="11" lengthAdjust="spacing" textLength="82.7954" x="55.7097" y="281.6831">Dados v&#225;lidos?</text><rect fill="#F1F1F1" height="33.9688" rx="12.5" ry="12.5" style="stroke:#181818;stroke-width:0.5;" width="172.2148" x="11" y="440.7617"/><text fill="#000000" font-family="sans-serif" font-size="12" lengthAdjust="spacing" textLength="152.2148" x="21" y="461.9004">Atualizar dados no banco</text><rect fill="#F1F1F1" height="33.9688" rx="12.5" ry="12.5" style="stroke:#181818;stroke-width:0.5;" width="139.9648" x="27.125" y="494.7305"/><text fill="#000000" font-family="sans-serif" font-size="12" lengthAdjust="spacing" textLength="119.9648" x="37.125" y="515.8691">Confirmar altera&#231;&#227;o</text><ellipse cx="97.1074" cy="559.6992" fill="none" rx="11" ry="11" style="stroke:#222222;stroke-width:1;"/><ellipse cx="97.1074" cy="559.6992" fill="#222222" rx="6" ry="6" style="stroke:#222222;stroke-width:1;"/><line style="stroke:#181818;stroke-width:1;" x1="97.1074" x2="97.1074" y1="30" y2="50"/><polygon fill="#181818" points="93.1074,40,97.1074,50,101.1074,40,97.1074,44" style="stroke:#181818;stroke-width:1;"/><line style="stroke:#181818;stroke-width:1;" x1="97.1074" x2="97.1074" y1="83.9688" y2="103.9688"/><polygon fill="#181818" points="93.1074,93.9688,97.1074,103.9688,101.1074,93.9688,97.1074,97.9688" style="stroke:#181818;stroke-width:1;"/><line style="stroke:#181818;stroke-width:1;" x1="97.1074" x2="97.1074" y1="137.9375" y2="157.9375"/><polygon fill="#181818" points="93.1074,147.9375,97.1074,157.9375,101.1074,147.9375,97.1074,151.9375" style="stroke:#181818;stroke-width:1;"/><line style="stroke:#181818;stroke-width:1;" x1="97.1074" x2="97.1074" y1="191.9063" y2="211.9063"/><polygon fill="#181818" points="93.1074,201.9063,97.1074,211.9063,101.1074,201.9063,97.1074,205.9063" style="stroke:#181818;stroke-width:1;"/><line style="stroke:#181818;stroke-width:1;" x1="97.1074" x2="97.1074" y1="348.2461" y2="376.7617"/><polygon fill="#181818" points="93.1074,366.7617,97.1074,376.7617,101.1074,366.7617,97.1074,370.7617" style="stroke:#181818;stroke-width:1;"/><line style="stroke:#181818;stroke-width:1;" x1="97.1074" x2="97.1074" y1="289.875" y2="314.2773"/><polygon fill="#181818" points="93.1074,304.2773,97.1074,314.2773,101.1074,304.2773,97.1074,308.2773" style="stroke:#181818;stroke-width:1;"/><line style="stroke:#181818;stroke-width:1;" x1="150.5051" x2="162.5051" y1="277.875" y2="277.875"/><polygon fill="#181818" points="158.5051,346.7617,162.5051,356.7617,166.5051,346.7617,162.5051,350.7617" style="stroke:#181818;stroke-width:1;"/><line style="stroke:#181818;stroke-width:1;" x1="162.5051" x2="162.5051" y1="277.875" y2="420.7617"/><line style="stroke:#181818;stroke-width:1;" x1="162.5051" x2="97.1074" y1="420.7617" y2="420.7617"/><line style="stroke:#181818;stroke-width:1;" x1="97.1074" x2="97.1074" y1="420.7617" y2="440.7617"/><polygon fill="#181818" points="93.1074,430.7617,97.1074,440.7617,101.1074,430.7617,97.1074,434.7617" style="stroke:#181818;stroke-width:1;"/><line style="stroke:#181818;stroke-width:1;" x1="97.1074" x2="97.1074" y1="245.875" y2="265.875"/><polygon fill="#181818" points="93.1074,255.875,97.1074,265.875,101.1074,255.875,97.1074,259.875" style="stroke:#181818;stroke-width:1;"/><line style="stroke:#181818;stroke-width:1;" x1="97.1074" x2="97.1074" y1="474.7305" y2="494.7305"/><polygon fill="#181818" points="93.1074,484.7305,97.1074,494.7305,101.1074,484.7305,97.1074,488.7305" style="stroke:#181818;stroke-width:1;"/><line style="stroke:#181818;stroke-width:1;" x1="97.1074" x2="97.1074" y1="528.6992" y2="548.6992"/><polygon fill="#181818" points="93.1074,538.6992,97.1074,548.6992,101.1074,538.6992,97.1074,542.6992" style="stroke:#181818;stroke-width:1;"/><?plantuml-src JOuz3i8m38Ltdy8ZlK8x80HTMP3OtSO5IsbSEG4XReCOE4WlXijGCVhz-7kva1MeJnov5qraoEDadAc1UazcV74fKD2CL6uasVKsI5dLG7-DCqK9RlKqJkfHa04tXr_kFh_Sqxoji5mvuUOulxK2nBfzI2VEDTF6xrnq0av11e1wvymepvMM53jAlIxhD0rYeriK2nlD7t_Om5B_0W00?></g></svg>