<?plantuml 1.2026.2beta3?><svg xmlns="http://www.w3.org/2000/svg" xmlns:xlink="http://www.w3.org/1999/xlink" contentStyleType="text/css" data-diagram-type="ACTIVITY" height="591px" preserveAspectRatio="none" style="width:284px;height:591px;background:#FFFFFF;" version="1.1" viewBox="0 0 284 591" width="284px" zoomAndPan="magnify"><defs/><g><ellipse cx="139.2795" cy="20" fill="#222222" rx="10" ry="10" style="stroke:#222222;stroke-width:1;"/><rect fill="#F1F1F1" height="33.9688" rx="12.5" ry="12.5" style="stroke:#181818;stroke-width:0.5;" width="101.5801" x="88.4895" y="50"/><text fill="#000000" font-family="sans-serif" font-size="12" lengthAdjust="spacing" textLength="81.5801" x="98.4895" y="71.1387">Receber CNPJ</text><rect fill="#F1F1F1" height="33.9688" rx="12.5" ry="12.5" style="stroke:#181818;stroke-width:0.5;" width="198.5645" x="39.9973" y="103.9688"/><text fill="#000000" font-family="sans-serif" font-size="12" lengthAdjust="spacing" textLength="178.5645" x="49.9973" y="125.1074">Remover caracteres inv&#225;lidos</text><rect fill="#F1F1F1" height="33.9688" rx="12.5" ry="12.5" style="stroke:#181818;stroke-width:0.5;" width="127.7715" x="75.3938" y="157.9375"/><text fill="#000000" font-family="sans-serif" font-size="12" lengthAdjust="spacing" textLength="107.7715" x="85.3938" y="179.0762">Verificar tamanho</text><rect fill="#F1F1F1" height="33.9688" rx="12.5" ry="12.5" style="stroke:#181818;stroke-width:0.5;" width="123.4297" x="77.5647" y="260.3086"/><text fill="#000000" font-family="sans-serif" font-size="12" lengthAdjust="spacing" textLength="103.4297" x="87.5647" y="281.4473">Retornar inv&#225;lido</text><ellipse cx="139.2795" cy="333.793" fill="none" rx="11" ry="11" style="stroke:#222222;stroke-width:1;"/><ellipse cx="139.2795" cy="333.793" fill="#222222" rx="6" ry="6" style="stroke:#222222;stroke-width:1;"/><polygon fill="#F1F1F1" points="90.0212,211.9063,188.5378,211.9063,200.5378,223.9063,188.5378,235.9063,90.0212,235.9063,78.0212,223.9063,90.0212,211.9063" style="stroke:#181818;stroke-width:0.5;"/><text fill="#000000" font-family="sans-serif" font-size="11" lengthAdjust="spacing" textLength="20.7539" x="143.2795" y="246.1167">Sim</text><text fill="#000000" font-family="sans-serif" font-size="11" lengthAdjust="spacing" textLength="98.5166" x="90.0212" y="227.7144">Formato inv&#225;lido?</text><rect fill="#F1F1F1" height="33.9688" rx="12.5" ry="12.5" style="stroke:#181818;stroke-width:0.5;" width="194.5098" x="42.0247" y="386.793"/><text fill="#000000" font-family="sans-serif" font-size="12" lengthAdjust="spacing" textLength="174.5098" x="52.0247" y="407.9316">Calcular d&#237;gitos verificadores</text><polygon fill="#F1F1F1" points="89.2451,440.7617,189.314,440.7617,201.314,452.7617,189.314,464.7617,89.2451,464.7617,77.2451,452.7617,89.2451,440.7617" style="stroke:#181818;stroke-width:0.5;"/><text fill="#000000" font-family="sans-serif" font-size="11" lengthAdjust="spacing" textLength="100.0688" x="89.2451" y="456.5698">D&#237;gitos conferem?</text><text fill="#000000" font-family="sans-serif" font-size="11" lengthAdjust="spacing" textLength="20.7539" x="56.4912" y="450.1675">Sim</text><rect fill="#F1F1F1" height="33.9688" rx="12.5" ry="12.5" style="stroke:#181818;stroke-width:0.5;" width="112.4902" x="11" y="474.7617"/><text fill="#000000" font-family="sans-serif" font-size="12" lengthAdjust="spacing" textLength="92.4902" x="21" y="495.9004">Retornar v&#225;lido</text><rect fill="#F1F1F1" height="33.9688" rx="12.5" ry="12.5" style="stroke:#181818;stroke-width:0.5;" width="123.4297" x="149.5991" y="474.7617"/><text fill="#000000" font-family="sans-serif" font-size="12" lengthAdjust="spacing" textLength="103.4297" x="159.5991" y="495.9004">Retornar inv&#225;lido</text><polygon fill="#F1F1F1" points="139.2795,514.7305,151.2795,526.7305,139.2795,538.7305,127.2795,526.7305,139.2795,514.7305" style="stroke:#181818;stroke-width:0.5;"/><ellipse cx="139.2795" cy="569.7305" fill="none" rx="11" ry="11" style="stroke:#222222;stroke-width:1;"/><ellipse cx="139.2795" cy="569.7305" fill="#222222" rx="6" ry="6" style="stroke:#222222;stroke-width:1;"/><line style="stroke:#181818;stroke-width:1;" x1="139.2795" x2="139.2795" y1="30" y2="50"/><polygon fill="#181818" points="135.2795,40,139.2795,50,143.2795,40,139.2795,44" style="stroke:#181818;stroke-width:1;"/><line style="stroke:#181818;stroke-width:1;" x1="139.2795" x2="139.2795" y1="83.9688" y2="103.9688"/><polygon fill="#181818" points="135.2795,93.9688,139.2795,103.9688,143.2795,93.9688,139.2795,97.9688" style="stroke:#181818;stroke-width:1;"/><line style="stroke:#181818;stroke-width:1;" x1="139.2795" x2="139.2795" y1="137.9375" y2="157.9375"/><polygon fill="#181818" points="135.2795,147.9375,139.2795,157.9375,143.2795,147.9375,139.2795,151.9375" style="stroke:#181818;stroke-width:1;"/><line style="stroke:#181818;stroke-width:1;" x1="139.2795" x2="139.2795" y1="294.2773" y2="322.793"/><polygon fill="#181818" points="135.2795,312.793,139.2795,322.793,143.2795,312.793,139.2795,316.793" style="stroke:#181818;stroke-width:1;"/><line style="stroke:#181818;stroke-width:1;" x1="139.2795" x2="139.2795" y1="235.9063" y2="260.3086"/><polygon fill="#181818" points="135.2795,250.3086,139.2795,260.3086,143.2795,250.3086,139.2795,254.3086" style="stroke:#181818;stroke-width:1;"/><line style="stroke:#181818;stroke-width:1;" x1="200.5378" x2="212.5378" y1="223.9063" y2="223.9063"/><polygon fill="#181818" points="208.5378,292.793,212.5378,302.793,216.5378,292.793,212.5378,296.793" style="stroke:#181818;stroke-width:1;"/><line style="stroke:#181818;stroke-width:1;" x1="212.5378" x2="212.5378" y1="223.9063" y2="366.793"/><line style="stroke:#181818;stroke-width:1;" x1="212.5378" x2="139.2795" y1="366.793" y2="366.793"/><line style="stroke:#181818;stroke-width:1;" x1="139.2795" x2="139.2795" y1="366.793" y2="386.793"/><polygon fill="#181818" points="135.2795,376.793,139.2795,386.793,143.2795,376.793,139.2795,380.793" style="stroke:#181818;stroke-width:1;"/><line style="stroke:#181818;stroke-width:1;" x1="139.2795" x2="139.2795" y1="191.9063" y2="211.9063"/><polygon fill="#181818" points="135.2795,201.9063,139.2795,211.9063,143.2795,201.9063,139.2795,205.9063" style="stroke:#181818;stroke-width:1;"/><line style="stroke:#181818;stroke-width:1;" x1="77.2451" x2="67.2451" y1="452.7617" y2="452.7617"/><line style="stroke:#181818;stroke-width:1;" x1="67.2451" x2="67.2451" y1="452.7617" y2="474.7617"/><polygon fill="#181818" points="63.2451,464.7617,67.2451,474.7617,71.2451,464.7617,67.2451,468.7617" style="stroke:#181818;stroke-width:1;"/><line style="stroke:#181818;stroke-width:1;" x1="201.314" x2="211.314" y1="452.7617" y2="452.7617"/><line style="stroke:#181818;stroke-width:1;" x1="211.314" x2="211.314" y1="452.7617" y2="474.7617"/><polygon fill="#181818" points="207.314,464.7617,211.314,474.7617,215.314,464.7617,211.314,468.7617" style="stroke:#181818;stroke-width:1;"/><line style="stroke:#181818;stroke-width:1;" x1="67.2451" x2="67.2451" y1="508.7305" y2="526.7305"/><line style="stroke:#181818;stroke-width:1;" x1="67.2451" x2="127.2795" y1="526.7305" y2="526.7305"/><polygon fill="#181818" points="117.2795,522.7305,127.2795,526.7305,117.2795,530.7305,121.2795,526.7305" style="stroke:#181818;stroke-width:1;"/><line style="stroke:#181818;stroke-width:1;" x1="211.314" x2="211.314" y1="508.7305" y2="526.7305"/><line style="stroke:#181818;stroke-width:1;" x1="211.314" x2="151.2795" y1="526.7305" y2="526.7305"/><polygon fill="#181818" points="161.2795,522.7305,151.2795,526.7305,161.2795,530.7305,157.2795,526.7305" style="stroke:#181818;stroke-width:1;"/><line style="stroke:#181818;stroke-width:1;" x1="139.2795" x2="139.2795" y1="420.7617" y2="440.7617"/><polygon fill="#181818" points="135.2795,430.7617,139.2795,440.7617,143.2795,430.7617,139.2795,434.7617" style="stroke:#181818;stroke-width:1;"/><line style="stroke:#181818;stroke-width:1;" x1="139.2795" x2="139.2795" y1="538.7305" y2="558.7305"/><polygon fill="#181818" points="135.2795,548.7305,139.2795,558.7305,143.2795,548.7305,139.2795,552.7305" style="stroke:#181818;stroke-width:1;"/><?plantuml-src TOun3i8m34NtdC9ZUuLsO2XYO4089FQGEDHI4wF4z3uSW5FqOhXIALD7-t_xlI8sYsakwF2E6RhJ-TZEO-HHHsUpTO8P2r0Qf_T0delcDymKI5CG6stgkJM60bG7pj4A_ykx6gJ71DMLOcq0zBDmJdguLbfT5-6dmUGf6DDqTd2lGIj--Zn8kC2uu3ohoOBQ_qB7AQXXt4Qj81mARaaizDda2m00?></g></svg>