<?plantuml 1.2026.2beta3?><svg xmlns="http://www.w3.org/2000/svg" xmlns:xlink="http://www.w3.org/1999/xlink" contentStyleType="text/css" data-diagram-type="ACTIVITY" height="406px" preserveAspectRatio="none" style="width:212px;height:406px;background:#FFFFFF;" version="1.1" viewBox="0 0 212 406" width="212px" zoomAndPan="magnify"><defs/><g><ellipse cx="106.0664" cy="20" fill="#222222" rx="10" ry="10" style="stroke:#222222;stroke-width:1;"/><rect fill="#F1F1F1" height="33.9688" rx="12.5" ry="12.5" style="stroke:#181818;stroke-width:0.5;" width="164.3047" x="23.9141" y="50"/><text fill="#000000" font-family="sans-serif" font-size="12" lengthAdjust="spacing" textLength="144.3047" x="33.9141" y="71.1387">Selecionar compet&#234;ncia</text><rect fill="#F1F1F1" height="33.9688" rx="12.5" ry="12.5" style="stroke:#181818;stroke-width:0.5;" width="190.1328" x="11" y="103.9688"/><text fill="#000000" font-family="sans-serif" font-size="12" lengthAdjust="spacing" textLength="170.1328" x="21" y="125.1074">Carregar funcion&#225;rios ativos</text><rect fill="#F1F1F1" height="33.9688" rx="12.5" ry="12.5" style="stroke:#181818;stroke-width:0.5;" width="118.8594" x="46.6367" y="157.9375"/><text fill="#000000" font-family="sans-serif" font-size="12" lengthAdjust="spacing" textLength="98.8594" x="56.6367" y="179.0762">Calcular sal&#225;rios</text><rect fill="#F1F1F1" height="33.9688" rx="12.5" ry="12.5" style="stroke:#181818;stroke-width:0.5;" width="133.8008" x="39.166" y="211.9063"/><text fill="#000000" font-family="sans-serif" font-size="12" lengthAdjust="spacing" textLength="113.8008" x="49.166" y="233.0449">Calcular descontos</text><rect fill="#F1F1F1" height="33.9688" rx="12.5" ry="12.5" style="stroke:#181818;stroke-width:0.5;" width="127.7891" x="42.1719" y="265.875"/><text fill="#000000" font-family="sans-serif" font-size="12" lengthAdjust="spacing" textLength="107.7891" x="52.1719" y="287.0137">Calcular encargos</text><rect fill="#F1F1F1" height="33.9688" rx="12.5" ry="12.5" style="stroke:#181818;stroke-width:0.5;" width="163.8828" x="24.125" y="319.8438"/><text fill="#000000" font-family="sans-serif" font-size="12" lengthAdjust="spacing" textLength="143.8828" x="34.125" y="340.9824">Salvar folha processada</text><ellipse cx="106.0664" cy="384.8125" fill="none" rx="11" ry="11" style="stroke:#222222;stroke-width:1;"/><ellipse cx="106.0664" cy="384.8125" fill="#222222" rx="6" ry="6" style="stroke:#222222;stroke-width:1;"/><line style="stroke:#181818;stroke-width:1;" x1="106.0664" x2="106.0664" y1="30" y2="50"/><polygon fill="#181818" points="102.0664,40,106.0664,50,110.0664,40,106.0664,44" style="stroke:#181818;stroke-width:1;"/><line style="stroke:#181818;stroke-width:1;" x1="106.0664" x2="106.0664" y1="83.9688" y2="103.9688"/><polygon fill="#181818" points="102.0664,93.9688,106.0664,103.9688,110.0664,93.9688,106.0664,97.9688" style="stroke:#181818;stroke-width:1;"/><line style="stroke:#181818;stroke-width:1;" x1="106.0664" x2="106.0664" y1="137.9375" y2="157.9375"/><polygon fill="#181818" points="102.0664,147.9375,106.0664,157.9375,110.0664,147.9375,106.0664,151.9375" style="stroke:#181818;stroke-width:1;"/><line style="stroke:#181818;stroke-width:1;" x1="106.0664" x2="106.0664" y1="191.9063" y2="211.9063"/><polygon fill="#181818" points="102.0664,201.9063,106.0664,211.9063,110.0664,201.9063,106.0664,205.9063" style="stroke:#181818;stroke-width:1;"/><line style="stroke:#181818;stroke-width:1;" x1="106.0664" x2="106.0664" y1="245.875" y2="265.875"/><polygon fill="#181818" points="102.0664,255.875,106.0664,265.875,110.0664,255.875,106.0664,259.875" style="stroke:#181818;stroke-width:1;"/><line style="stroke:#181818;stroke-width:1;" x1="106.0664" x2="106.0664" y1="299.8438" y2="319.8438"/><polygon fill="#181818" points="102.0664,309.8438,106.0664,319.8438,110.0664,309.8438,106.0664,313.8438" style="stroke:#181818;stroke-width:1;"/><line style="stroke:#181818;stroke-width:1;" x1="106.0664" x2="106.0664" y1="353.8125" y2="373.8125"/><polygon fill="#181818" points="102.0664,363.8125,106.0664,373.8125,110.0664,363.8125,106.0664,367.8125" style="stroke:#181818;stroke-width:1;"/><?plantuml-src LSsn3OD038NXdYbk3b9c12PuCWuvoTWdsx1Fsgp1OZb8axJVRpr7mdCO9nQcQWelP6lZFDvA5RTXlCETb-wFJS-Bu-NLeY3hRd5reKrw3yYt_UBCGQRvZwm4NowR8FkvRV94QMx44PZxtqXh7m00?></g></svg>