<?plantuml 1.2026.2beta3?><svg xmlns="http://www.w3.org/2000/svg" xmlns:xlink="http://www.w3.org/1999/xlink" contentStyleType="text/css" data-diagram-type="ACTIVITY" height="473px" preserveAspectRatio="none" style="width:222px;height:473px;background:#FFFFFF;" version="1.1" viewBox="0 0 222 473" width="222px" zoomAndPan="magnify"><defs/><g><ellipse cx="105.5361" cy="20" fill="#222222" rx="10" ry="10" style="stroke:#222222;stroke-width:1;"/><rect fill="#F1F1F1" height="33.9688" rx="12.5" ry="12.5" style="stroke:#181818;stroke-width:0.5;" width="189.0723" x="11" y="50"/><text fill="#000000" font-family="sans-serif" font-size="12" lengthAdjust="spacing" textLength="169.0723" x="21" y="71.1387">Selecionar folha processada</text><rect fill="#F1F1F1" height="33.9688" rx="12.5" ry="12.5" style="stroke:#181818;stroke-width:0.5;" width="162.5645" x="24.2539" y="152.3711"/><text fill="#000000" font-family="sans-serif" font-size="12" lengthAdjust="spacing" textLength="142.5645" x="34.2539" y="173.5098">Bloquear cancelamento</text><ellipse cx="105.5361" cy="225.8555" fill="none" rx="11" ry="11" style="stroke:#222222;stroke-width:1;"/><ellipse cx="105.5361" cy="225.8555" fill="#222222" rx="6" ry="6" style="stroke:#222222;stroke-width:1;"/><polygon fill="#F1F1F1" points="57.4246,103.9688,153.6477,103.9688,165.6477,115.9688,153.6477,127.9688,57.4246,127.9688,45.4246,115.9688,57.4246,103.9688" style="stroke:#181818;stroke-width:0.5;"/><text fill="#000000" font-family="sans-serif" font-size="11" lengthAdjust="spacing" textLength="20.7539" x="109.5361" y="138.1792">Sim</text><text fill="#000000" font-family="sans-serif" font-size="11" lengthAdjust="spacing" textLength="96.2231" x="57.4246" y="119.7769">Folha j&#225; enviada?</text><rect fill="#F1F1F1" height="33.9688" rx="12.5" ry="12.5" style="stroke:#181818;stroke-width:0.5;" width="169.209" x="20.9316" y="278.8555"/><text fill="#000000" font-family="sans-serif" font-size="12" lengthAdjust="spacing" textLength="149.209" x="30.9316" y="299.9941">Cancelar processamento</text><rect fill="#F1F1F1" height="33.9688" rx="12.5" ry="12.5" style="stroke:#181818;stroke-width:0.5;" width="112.7188" x="49.1768" y="332.8242"/><text fill="#000000" font-family="sans-serif" font-size="12" lengthAdjust="spacing" textLength="92.7188" x="59.1768" y="353.9629">Excluir c&#225;lculos</text><rect fill="#F1F1F1" height="33.9688" rx="12.5" ry="12.5" style="stroke:#181818;stroke-width:0.5;" width="168.5586" x="21.2568" y="386.793"/><text fill="#000000" font-family="sans-serif" font-size="12" lengthAdjust="spacing" textLength="148.5586" x="31.2568" y="407.9316">Confirmar cancelamento</text><ellipse cx="105.5361" cy="451.7617" fill="none" rx="11" ry="11" style="stroke:#222222;stroke-width:1;"/><ellipse cx="105.5361" cy="451.7617" fill="#222222" rx="6" ry="6" style="stroke:#222222;stroke-width:1;"/><line style="stroke:#181818;stroke-width:1;" x1="105.5361" x2="105.5361" y1="30" y2="50"/><polygon fill="#181818" points="101.5361,40,105.5361,50,109.5361,40,105.5361,44" style="stroke:#181818;stroke-width:1;"/><line style="stroke:#181818;stroke-width:1;" x1="105.5361" x2="105.5361" y1="186.3398" y2="214.8555"/><polygon fill="#181818" points="101.5361,204.8555,105.5361,214.8555,109.5361,204.8555,105.5361,208.8555" style="stroke:#181818;stroke-width:1;"/><line style="stroke:#181818;stroke-width:1;" x1="105.5361" x2="105.5361" y1="127.9688" y2="152.3711"/><polygon fill="#181818" points="101.5361,142.3711,105.5361,152.3711,109.5361,142.3711,105.5361,146.3711" style="stroke:#181818;stroke-width:1;"/><line style="stroke:#181818;stroke-width:1;" x1="165.6477" x2="196.8184" y1="115.9688" y2="115.9688"/><polygon fill="#181818" points="192.8184,184.8555,196.8184,194.8555,200.8184,184.8555,196.8184,188.8555" style="stroke:#181818;stroke-width:1;"/><line style="stroke:#181818;stroke-width:1;" x1="196.8184" x2="196.8184" y1="115.9688" y2="258.8555"/><line style="stroke:#181818;stroke-width:1;" x1="196.8184" x2="105.5361" y1="258.8555" y2="258.8555"/><line style="stroke:#181818;stroke-width:1;" x1="105.5361" x2="105.5361" y1="258.8555" y2="278.8555"/><polygon fill="#181818" points="101.5361,268.8555,105.5361,278.8555,109.5361,268.8555,105.5361,272.8555" style="stroke:#181818;stroke-width:1;"/><line style="stroke:#181818;stroke-width:1;" x1="105.5361" x2="105.5361" y1="83.9688" y2="103.9688"/><polygon fill="#181818" points="101.5361,93.9688,105.5361,103.9688,109.5361,93.9688,105.5361,97.9688" style="stroke:#181818;stroke-width:1;"/><line style="stroke:#181818;stroke-width:1;" x1="105.5361" x2="105.5361" y1="312.8242" y2="332.8242"/><polygon fill="#181818" points="101.5361,322.8242,105.5361,332.8242,109.5361,322.8242,105.5361,326.8242" style="stroke:#181818;stroke-width:1;"/><line style="stroke:#181818;stroke-width:1;" x1="105.5361" x2="105.5361" y1="366.793" y2="386.793"/><polygon fill="#181818" points="101.5361,376.793,105.5361,386.793,109.5361,376.793,105.5361,380.793" style="stroke:#181818;stroke-width:1;"/><line style="stroke:#181818;stroke-width:1;" x1="105.5361" x2="105.5361" y1="420.7617" y2="440.7617"/><polygon fill="#181818" points="101.5361,430.7617,105.5361,440.7617,109.5361,430.7617,105.5361,434.7617" style="stroke:#181818;stroke-width:1;"/><?plantuml-src POrB3eCm34JtFeMNS8Mmg5JKNe0JMC4HgOnDar1n7Sx2nPf-r4stRsRUv4AfW1jOs4TJIXXC9i8bcUUSQQGE80PihczyEtPaVSJAJosMYHMR8Suj8Bgps7tbQl2adeLcrc9TJNAn1LZ7601S_mdJx-5RSvVDonhh-jZ5hsAvijuqn3J_EL_69m00?></g></svg>