<?plantuml 1.2026.2beta3?><svg xmlns="http://www.w3.org/2000/svg" xmlns:xlink="http://www.w3.org/1999/xlink" contentStyleType="text/css" data-diagram-type="ACTIVITY" height="473px" preserveAspectRatio="none" style="width:221px;height:473px;background:#FFFFFF;" version="1.1" viewBox="0 0 221 473" width="221px" zoomAndPan="magnify"><defs/><g><ellipse cx="110.748" cy="20" fill="#222222" rx="10" ry="10" style="stroke:#222222;stroke-width:1;"/><rect fill="#F1F1F1" height="33.9688" rx="12.5" ry="12.5" style="stroke:#181818;stroke-width:0.5;" width="199.4961" x="11" y="50"/><text fill="#000000" font-family="sans-serif" font-size="12" lengthAdjust="spacing" textLength="179.4961" x="21" y="71.1387">Receber dados do funcion&#225;rio</text><rect fill="#F1F1F1" height="33.9688" rx="12.5" ry="12.5" style="stroke:#181818;stroke-width:0.5;" width="195.2598" x="13.1182" y="103.9688"/><text fill="#000000" font-family="sans-serif" font-size="12" lengthAdjust="spacing" textLength="175.2598" x="23.1182" y="125.1074">Validar CPF e dados pessoais</text><rect fill="#F1F1F1" height="33.9688" rx="12.5" ry="12.5" style="stroke:#181818;stroke-width:0.5;" width="82.3086" x="69.5938" y="206.3398"/><text fill="#000000" font-family="sans-serif" font-size="12" lengthAdjust="spacing" textLength="62.3086" x="79.5938" y="227.4785">Exibir erro</text><ellipse cx="110.748" cy="279.8242" fill="none" rx="11" ry="11" style="stroke:#222222;stroke-width:1;"/><ellipse cx="110.748" cy="279.8242" fill="#222222" rx="6" ry="6" style="stroke:#222222;stroke-width:1;"/><polygon fill="#F1F1F1" points="69.3503,157.9375,152.1458,157.9375,164.1458,169.9375,152.1458,181.9375,69.3503,181.9375,57.3503,169.9375,69.3503,157.9375" style="stroke:#181818;stroke-width:0.5;"/><text fill="#000000" font-family="sans-serif" font-size="11" lengthAdjust="spacing" textLength="21.6992" x="114.748" y="192.1479">N&#227;o</text><text fill="#000000" font-family="sans-serif" font-size="11" lengthAdjust="spacing" textLength="82.7954" x="69.3503" y="173.7456">Dados v&#225;lidos?</text><rect fill="#F1F1F1" height="33.9688" rx="12.5" ry="12.5" style="stroke:#181818;stroke-width:0.5;" width="187.877" x="16.8096" y="332.8242"/><text fill="#000000" font-family="sans-serif" font-size="12" lengthAdjust="spacing" textLength="167.877" x="26.8096" y="353.9629">Salvar funcion&#225;rio no banco</text><rect fill="#F1F1F1" height="33.9688" rx="12.5" ry="12.5" style="stroke:#181818;stroke-width:0.5;" width="135.7637" x="42.8662" y="386.793"/><text fill="#000000" font-family="sans-serif" font-size="12" lengthAdjust="spacing" textLength="115.7637" x="52.8662" y="407.9316">Confirmar cadastro</text><ellipse cx="110.748" cy="451.7617" fill="none" rx="11" ry="11" style="stroke:#222222;stroke-width:1;"/><ellipse cx="110.748" cy="451.7617" fill="#222222" rx="6" ry="6" style="stroke:#222222;stroke-width:1;"/><line style="stroke:#181818;stroke-width:1;" x1="110.748" x2="110.748" y1="30" y2="50"/><polygon fill="#181818" points="106.748,40,110.748,50,114.748,40,110.748,44" style="stroke:#181818;stroke-width:1;"/><line style="stroke:#181818;stroke-width:1;" x1="110.748" x2="110.748" y1="83.9688" y2="103.9688"/><polygon fill="#181818" points="106.748,93.9688,110.748,103.9688,114.748,93.9688,110.748,97.9688" style="stroke:#181818;stroke-width:1;"/><line style="stroke:#181818;stroke-width:1;" x1="110.748" x2="110.748" y1="240.3086" y2="268.8242"/><polygon fill="#181818" points="106.748,258.8242,110.748,268.8242,114.748,258.8242,110.748,262.8242" style="stroke:#181818;stroke-width:1;"/><line style="stroke:#181818;stroke-width:1;" x1="110.748" x2="110.748" y1="181.9375" y2="206.3398"/><polygon fill="#181818" points="106.748,196.3398,110.748,206.3398,114.748,196.3398,110.748,200.3398" style="stroke:#181818;stroke-width:1;"/><line style="stroke:#181818;stroke-width:1;" x1="164.1458" x2="176.1458" y1="169.9375" y2="169.9375"/><polygon fill="#181818" points="172.1458,238.8242,176.1458,248.8242,180.1458,238.8242,176.1458,242.8242" style="stroke:#181818;stroke-width:1;"/><line style="stroke:#181818;stroke-width:1;" x1="176.1458" x2="176.1458" y1="169.9375" y2="312.8242"/><line style="stroke:#181818;stroke-width:1;" x1="176.1458" x2="110.748" y1="312.8242" y2="312.8242"/><line style="stroke:#181818;stroke-width:1;" x1="110.748" x2="110.748" y1="312.8242" y2="332.8242"/><polygon fill="#181818" points="106.748,322.8242,110.748,332.8242,114.748,322.8242,110.748,326.8242" style="stroke:#181818;stroke-width:1;"/><line style="stroke:#181818;stroke-width:1;" x1="110.748" x2="110.748" y1="137.9375" y2="157.9375"/><polygon fill="#181818" points="106.748,147.9375,110.748,157.9375,114.748,147.9375,110.748,151.9375" style="stroke:#181818;stroke-width:1;"/><line style="stroke:#181818;stroke-width:1;" x1="110.748" x2="110.748" y1="366.793" y2="386.793"/><polygon fill="#181818" points="106.748,376.793,110.748,386.793,114.748,376.793,110.748,380.793" style="stroke:#181818;stroke-width:1;"/><line style="stroke:#181818;stroke-width:1;" x1="110.748" x2="110.748" y1="420.7617" y2="440.7617"/><polygon fill="#181818" points="106.748,430.7617,110.748,440.7617,114.748,430.7617,110.748,434.7617" style="stroke:#181818;stroke-width:1;"/><?plantuml-src JOqn3i8m34Ltdy9ZUuLqO2Wm8WGIkviumbA9AoTKNAVYABqOAM9W_Nh_lLp82hWBUnxOC53GZ44nFfCNJUjYeXsu6uqIoB0_7v5_rCGvAqdk02HYi_-EyxfKKlEknNBdXCrfVMiBYExmaa4CsQmA4NFH2JW5YG3kIkDSxVzHJ8e39R_LUqrHx549Ju5osGpR_mC0?></g></svg>