<?plantuml 1.2026.2beta3?><svg xmlns="http://www.w3.org/2000/svg" xmlns:xlink="http://www.w3.org/1999/xlink" contentStyleType="text/css" data-diagram-type="ACTIVITY" height="352px" preserveAspectRatio="none" style="width:239px;height:352px;background:#FFFFFF;" version="1.1" viewBox="0 0 239 352" width="239px" zoomAndPan="magnify"><defs/><g><ellipse cx="119.9531" cy="20" fill="#222222" rx="10" ry="10" style="stroke:#222222;stroke-width:1;"/><rect fill="#F1F1F1" height="33.9688" rx="12.5" ry="12.5" style="stroke:#181818;stroke-width:0.5;" width="153.9746" x="42.9658" y="50"/><text fill="#000000" font-family="sans-serif" font-size="12" lengthAdjust="spacing" textLength="133.9746" x="52.9658" y="71.1387">Selecionar funcion&#225;rio</text><rect fill="#F1F1F1" height="33.9688" rx="12.5" ry="12.5" style="stroke:#181818;stroke-width:0.5;" width="164.3047" x="37.8008" y="103.9688"/><text fill="#000000" font-family="sans-serif" font-size="12" lengthAdjust="spacing" textLength="144.3047" x="47.8008" y="125.1074">Selecionar compet&#234;ncia</text><rect fill="#F1F1F1" height="33.9688" rx="12.5" ry="12.5" style="stroke:#181818;stroke-width:0.5;" width="153.4297" x="43.2383" y="157.9375"/><text fill="#000000" font-family="sans-serif" font-size="12" lengthAdjust="spacing" textLength="133.4297" x="53.2383" y="179.0762">Buscar dados da folha</text><rect fill="#F1F1F1" height="33.9688" rx="12.5" ry="12.5" style="stroke:#181818;stroke-width:0.5;" width="116.4043" x="61.751" y="211.9063"/><text fill="#000000" font-family="sans-serif" font-size="12" lengthAdjust="spacing" textLength="96.4043" x="71.751" y="233.0449">Calcular valores</text><rect fill="#F1F1F1" height="33.9688" rx="12.5" ry="12.5" style="stroke:#181818;stroke-width:0.5;" width="217.9063" x="11" y="265.875"/><text fill="#000000" font-family="sans-serif" font-size="12" lengthAdjust="spacing" textLength="197.9063" x="21" y="287.0137">Retornar dados do contracheque</text><ellipse cx="119.9531" cy="330.8438" fill="none" rx="11" ry="11" style="stroke:#222222;stroke-width:1;"/><ellipse cx="119.9531" cy="330.8438" fill="#222222" rx="6" ry="6" style="stroke:#222222;stroke-width:1;"/><line style="stroke:#181818;stroke-width:1;" x1="119.9531" x2="119.9531" y1="30" y2="50"/><polygon fill="#181818" points="115.9531,40,119.9531,50,123.9531,40,119.9531,44" style="stroke:#181818;stroke-width:1;"/><line style="stroke:#181818;stroke-width:1;" x1="119.9531" x2="119.9531" y1="83.9688" y2="103.9688"/><polygon fill="#181818" points="115.9531,93.9688,119.9531,103.9688,123.9531,93.9688,119.9531,97.9688" style="stroke:#181818;stroke-width:1;"/><line style="stroke:#181818;stroke-width:1;" x1="119.9531" x2="119.9531" y1="137.9375" y2="157.9375"/><polygon fill="#181818" points="115.9531,147.9375,119.9531,157.9375,123.9531,147.9375,119.9531,151.9375" style="stroke:#181818;stroke-width:1;"/><line style="stroke:#181818;stroke-width:1;" x1="119.9531" x2="119.9531" y1="191.9063" y2="211.9063"/><polygon fill="#181818" points="115.9531,201.9063,119.9531,211.9063,123.9531,201.9063,119.9531,205.9063" style="stroke:#181818;stroke-width:1;"/><line style="stroke:#181818;stroke-width:1;" x1="119.9531" x2="119.9531" y1="245.875" y2="265.875"/><polygon fill="#181818" points="115.9531,255.875,119.9531,265.875,123.9531,255.875,119.9531,259.875" style="stroke:#181818;stroke-width:1;"/><line style="stroke:#181818;stroke-width:1;" x1="119.9531" x2="119.9531" y1="299.8438" y2="319.8438"/><polygon fill="#181818" points="115.9531,309.8438,119.9531,319.8438,123.9531,309.8438,119.9531,313.8438" style="stroke:#181818;stroke-width:1;"/><?plantuml-src LOon3ODG34Hxfc0EwC86P0BB685a_X7RF_lGPWqMYwaGpUdqtkayoABftgB2AmfPEzTojVEm5Vt3CBPTulobfpIlwfnqeWcUsSxGvU83ALTDyoM5YISQ9M3b7YE_IXZn8fygVUE1_Gy0?></g></svg>