<?plantuml 1.2026.2beta3?><svg xmlns="http://www.w3.org/2000/svg" xmlns:xlink="http://www.w3.org/1999/xlink" contentStyleType="text/css" data-diagram-type="ACTIVITY" height="581px" preserveAspectRatio="none" style="width:225px;height:581px;background:#FFFFFF;" version="1.1" viewBox="0 0 225 581" width="225px" zoomAndPan="magnify"><defs/><g><ellipse cx="112.6553" cy="20" fill="#222222" rx="10" ry="10" style="stroke:#222222;stroke-width:1;"/><rect fill="#F1F1F1" height="33.9688" rx="12.5" ry="12.5" style="stroke:#181818;stroke-width:0.5;" width="153.9746" x="35.668" y="50"/><text fill="#000000" font-family="sans-serif" font-size="12" lengthAdjust="spacing" textLength="133.9746" x="45.668" y="71.1387">Selecionar funcion&#225;rio</text><rect fill="#F1F1F1" height="33.9688" rx="12.5" ry="12.5" style="stroke:#181818;stroke-width:0.5;" width="112.8828" x="56.2139" y="103.9688"/><text fill="#000000" font-family="sans-serif" font-size="12" lengthAdjust="spacing" textLength="92.8828" x="66.2139" y="125.1074">Carregar dados</text><rect fill="#F1F1F1" height="33.9688" rx="12.5" ry="12.5" style="stroke:#181818;stroke-width:0.5;" width="138.7227" x="43.2939" y="157.9375"/><text fill="#000000" font-family="sans-serif" font-size="12" lengthAdjust="spacing" textLength="118.7227" x="53.2939" y="179.0762">Alterar informa&#231;&#245;es</text><rect fill="#F1F1F1" height="33.9688" rx="12.5" ry="12.5" style="stroke:#181818;stroke-width:0.5;" width="102.1309" x="61.5898" y="211.9063"/><text fill="#000000" font-family="sans-serif" font-size="12" lengthAdjust="spacing" textLength="82.1309" x="71.5898" y="233.0449">Validar dados</text><rect fill="#F1F1F1" height="33.9688" rx="12.5" ry="12.5" style="stroke:#181818;stroke-width:0.5;" width="82.3086" x="71.501" y="314.2773"/><text fill="#000000" font-family="sans-serif" font-size="12" lengthAdjust="spacing" textLength="62.3086" x="81.501" y="335.416">Exibir erro</text><ellipse cx="112.6553" cy="387.7617" fill="none" rx="11" ry="11" style="stroke:#222222;stroke-width:1;"/><ellipse cx="112.6553" cy="387.7617" fill="#222222" rx="6" ry="6" style="stroke:#222222;stroke-width:1;"/><polygon fill="#F1F1F1" points="71.2576,265.875,154.053,265.875,166.053,277.875,154.053,289.875,71.2576,289.875,59.2576,277.875,71.2576,265.875" style="stroke:#181818;stroke-width:0.5;"/><text fill="#000000" font-family="sans-serif" font-size="11" lengthAdjust="spacing" textLength="21.6992" x="116.6553" y="300.0854">N&#227;o</text><text fill="#000000" font-family="sans-serif" font-size="11" lengthAdjust="spacing" textLength="82.7954" x="71.2576" y="281.6831">Dados v&#225;lidos?</text><rect fill="#F1F1F1" height="33.9688" rx="12.5" ry="12.5" style="stroke:#181818;stroke-width:0.5;" width="203.3105" x="11" y="440.7617"/><text fill="#000000" font-family="sans-serif" font-size="12" lengthAdjust="spacing" textLength="183.3105" x="21" y="461.9004">Atualizar funcion&#225;rio no banco</text><rect fill="#F1F1F1" height="33.9688" rx="12.5" ry="12.5" style="stroke:#181818;stroke-width:0.5;" width="139.9648" x="42.6729" y="494.7305"/><text fill="#000000" font-family="sans-serif" font-size="12" lengthAdjust="spacing" textLength="119.9648" x="52.6729" y="515.8691">Confirmar altera&#231;&#227;o</text><ellipse cx="112.6553" cy="559.6992" fill="none" rx="11" ry="11" style="stroke:#222222;stroke-width:1;"/><ellipse cx="112.6553" cy="559.6992" fill="#222222" rx="6" ry="6" style="stroke:#222222;stroke-width:1;"/><line style="stroke:#181818;stroke-width:1;" x1="112.6553" x2="112.6553" y1="30" y2="50"/><polygon fill="#181818" points="108.6553,40,112.6553,50,116.6553,40,112.6553,44" style="stroke:#181818;stroke-width:1;"/><line style="stroke:#181818;stroke-width:1;" x1="112.6553" x2="112.6553" y1="83.9688" y2="103.9688"/><polygon fill="#181818" points="108.6553,93.9688,112.6553,103.9688,116.6553,93.9688,112.6553,97.9688" style="stroke:#181818;stroke-width:1;"/><line style="stroke:#181818;stroke-width:1;" x1="112.6553" x2="112.6553" y1="137.9375" y2="157.9375"/><polygon fill="#181818" points="108.6553,147.9375,112.6553,157.9375,116.6553,147.9375,112.6553,151.9375" style="stroke:#181818;stroke-width:1;"/><line style="stroke:#181818;stroke-width:1;" x1="112.6553" x2="112.6553" y1="191.9063" y2="211.9063"/><polygon fill="#181818" points="108.6553,201.9063,112.6553,211.9063,116.6553,201.9063,112.6553,205.9063" style="stroke:#181818;stroke-width:1;"/><line style="stroke:#181818;stroke-width:1;" x1="112.6553" x2="112.6553" y1="348.2461" y2="376.7617"/><polygon fill="#181818" points="108.6553,366.7617,112.6553,376.7617,116.6553,366.7617,112.6553,370.7617" style="stroke:#181818;stroke-width:1;"/><line style="stroke:#181818;stroke-width:1;" x1="112.6553" x2="112.6553" y1="289.875" y2="314.2773"/><polygon fill="#181818" points="108.6553,304.2773,112.6553,314.2773,116.6553,304.2773,112.6553,308.2773" style="stroke:#181818;stroke-width:1;"/><line style="stroke:#181818;stroke-width:1;" x1="166.053" x2="178.053" y1="277.875" y2="277.875"/><polygon fill="#181818" points="174.053,346.7617,178.053,356.7617,182.053,346.7617,178.053,350.7617" style="stroke:#181818;stroke-width:1;"/><line style="stroke:#181818;stroke-width:1;" x1="178.053" x2="178.053" y1="277.875" y2="420.7617"/><line style="stroke:#181818;stroke-width:1;" x1="178.053" x2="112.6553" y1="420.7617" y2="420.7617"/><line style="stroke:#181818;stroke-width:1;" x1="112.6553" x2="112.6553" y1="420.7617" y2="440.7617"/><polygon fill="#181818" points="108.6553,430.7617,112.6553,440.7617,116.6553,430.7617,112.6553,434.7617" style="stroke:#181818;stroke-width:1;"/><line style="stroke:#181818;stroke-width:1;" x1="112.6553" x2="112.6553" y1="245.875" y2="265.875"/><polygon fill="#181818" points="108.6553,255.875,112.6553,265.875,116.6553,255.875,112.6553,259.875" style="stroke:#181818;stroke-width:1;"/><line style="stroke:#181818;stroke-width:1;" x1="112.6553" x2="112.6553" y1="474.7305" y2="494.7305"/><polygon fill="#181818" points="108.6553,484.7305,112.6553,494.7305,116.6553,484.7305,112.6553,488.7305" style="stroke:#181818;stroke-width:1;"/><line style="stroke:#181818;stroke-width:1;" x1="112.6553" x2="112.6553" y1="528.6992" y2="548.6992"/><polygon fill="#181818" points="108.6553,538.6992,112.6553,548.6992,116.6553,538.6992,112.6553,542.6992" style="stroke:#181818;stroke-width:1;"/><?plantuml-src NOun3i8m34NtdC8ZlK8P409M5YHsjt70KecHaoB4RQeEd80Jv68uNP3Olf-jxvSoQdRjYGRgMI8gX37ML2PbMRjsXwfqCUxHIpAm7JAfpHo3w0tBktoeyZCEx7ztZWEizZN3eqosahHf85yfmkfOPcaSG7juSiSAf6gl05AMkwFeEJZxaqThVFqPGHJeCFQBciJ0fg20YvEfpCPhonS0?></g></svg>