<?plantuml 1.2026.2beta3?><svg xmlns="http://www.w3.org/2000/svg" xmlns:xlink="http://www.w3.org/1999/xlink" contentStyleType="text/css" data-diagram-type="ACTIVITY" height="591px" preserveAspectRatio="none" style="width:293px;height:591px;background:#FFFFFF;" version="1.1" viewBox="0 0 293 591" width="293px" zoomAndPan="magnify"><defs/><g><ellipse cx="142.8652" cy="20" fill="#222222" rx="10" ry="10" style="stroke:#222222;stroke-width:1;"/><rect fill="#F1F1F1" height="33.9688" rx="12.5" ry="12.5" style="stroke:#181818;stroke-width:0.5;" width="157.7539" x="63.9883" y="50"/><text fill="#000000" font-family="sans-serif" font-size="12" lengthAdjust="spacing" textLength="137.7539" x="73.9883" y="71.1387">Receber email e senha</text><rect fill="#F1F1F1" height="33.9688" rx="12.5" ry="12.5" style="stroke:#181818;stroke-width:0.5;" width="112.8008" x="86.4648" y="103.9688"/><text fill="#000000" font-family="sans-serif" font-size="12" lengthAdjust="spacing" textLength="92.8008" x="96.4648" y="125.1074">Validar campos</text><rect fill="#F1F1F1" height="33.9688" rx="12.5" ry="12.5" style="stroke:#181818;stroke-width:0.5;" width="82.3086" x="101.7109" y="206.3398"/><text fill="#000000" font-family="sans-serif" font-size="12" lengthAdjust="spacing" textLength="62.3086" x="111.7109" y="227.4785">Exibir erro</text><ellipse cx="142.8652" cy="279.8242" fill="none" rx="11" ry="11" style="stroke:#222222;stroke-width:1;"/><ellipse cx="142.8652" cy="279.8242" fill="#222222" rx="6" ry="6" style="stroke:#222222;stroke-width:1;"/><polygon fill="#F1F1F1" points="98.637,157.9375,187.0935,157.9375,199.0935,169.9375,187.0935,181.9375,98.637,181.9375,86.637,169.9375,98.637,157.9375" style="stroke:#181818;stroke-width:0.5;"/><text fill="#000000" font-family="sans-serif" font-size="11" lengthAdjust="spacing" textLength="20.7539" x="146.8652" y="192.1479">Sim</text><text fill="#000000" font-family="sans-serif" font-size="11" lengthAdjust="spacing" textLength="88.4565" x="98.637" y="173.7456">Campos vazios?</text><rect fill="#F1F1F1" height="33.9688" rx="12.5" ry="12.5" style="stroke:#181818;stroke-width:0.5;" width="134.3398" x="75.6953" y="332.8242"/><text fill="#000000" font-family="sans-serif" font-size="12" lengthAdjust="spacing" textLength="114.3398" x="85.6953" y="353.9629">Validar credenciais</text><polygon fill="#F1F1F1" points="100.7585,386.793,184.9719,386.793,196.9719,398.793,184.9719,410.793,100.7585,410.793,88.7585,398.793,100.7585,386.793" style="stroke:#181818;stroke-width:0.5;"/><text fill="#000000" font-family="sans-serif" font-size="11" lengthAdjust="spacing" textLength="84.2134" x="100.7585" y="402.6011">Usu&#225;rio v&#225;lido?</text><text fill="#000000" font-family="sans-serif" font-size="11" lengthAdjust="spacing" textLength="20.7539" x="68.0046" y="396.1987">Sim</text><rect fill="#F1F1F1" height="33.9688" rx="12.5" ry="12.5" style="stroke:#181818;stroke-width:0.5;" width="93.582" x="23.0908" y="420.793"/><text fill="#000000" font-family="sans-serif" font-size="12" lengthAdjust="spacing" textLength="73.582" x="33.0908" y="441.9316">Criar sess&#227;o</text><rect fill="#F1F1F1" height="33.9688" rx="12.5" ry="12.5" style="stroke:#181818;stroke-width:0.5;" width="117.7637" x="11" y="474.7617"/><text fill="#000000" font-family="sans-serif" font-size="12" lengthAdjust="spacing" textLength="97.7637" x="21" y="495.9004">Acessar sistema</text><rect fill="#F1F1F1" height="33.9688" rx="12.5" ry="12.5" style="stroke:#181818;stroke-width:0.5;" width="134.1699" x="148.7637" y="420.793"/><text fill="#000000" font-family="sans-serif" font-size="12" lengthAdjust="spacing" textLength="114.1699" x="158.7637" y="441.9316">Exibir erro de login</text><polygon fill="#F1F1F1" points="142.8652,514.7305,154.8652,526.7305,142.8652,538.7305,130.8652,526.7305,142.8652,514.7305" style="stroke:#181818;stroke-width:0.5;"/><ellipse cx="142.8652" cy="569.7305" fill="none" rx="11" ry="11" style="stroke:#222222;stroke-width:1;"/><ellipse cx="142.8652" cy="569.7305" fill="#222222" rx="6" ry="6" style="stroke:#222222;stroke-width:1;"/><line style="stroke:#181818;stroke-width:1;" x1="142.8652" x2="142.8652" y1="30" y2="50"/><polygon fill="#181818" points="138.8652,40,142.8652,50,146.8652,40,142.8652,44" style="stroke:#181818;stroke-width:1;"/><line style="stroke:#181818;stroke-width:1;" x1="142.8652" x2="142.8652" y1="83.9688" y2="103.9688"/><polygon fill="#181818" points="138.8652,93.9688,142.8652,103.9688,146.8652,93.9688,142.8652,97.9688" style="stroke:#181818;stroke-width:1;"/><line style="stroke:#181818;stroke-width:1;" x1="142.8652" x2="142.8652" y1="240.3086" y2="268.8242"/><polygon fill="#181818" points="138.8652,258.8242,142.8652,268.8242,146.8652,258.8242,142.8652,262.8242" style="stroke:#181818;stroke-width:1;"/><line style="stroke:#181818;stroke-width:1;" x1="142.8652" x2="142.8652" y1="181.9375" y2="206.3398"/><polygon fill="#181818" points="138.8652,196.3398,142.8652,206.3398,146.8652,196.3398,142.8652,200.3398" style="stroke:#181818;stroke-width:1;"/><line style="stroke:#181818;stroke-width:1;" x1="199.0935" x2="211.0935" y1="169.9375" y2="169.9375"/><polygon fill="#181818" points="207.0935,238.8242,211.0935,248.8242,215.0935,238.8242,211.0935,242.8242" style="stroke:#181818;stroke-width:1;"/><line style="stroke:#181818;stroke-width:1;" x1="211.0935" x2="211.0935" y1="169.9375" y2="312.8242"/><line style="stroke:#181818;stroke-width:1;" x1="211.0935" x2="142.8652" y1="312.8242" y2="312.8242"/><line style="stroke:#181818;stroke-width:1;" x1="142.8652" x2="142.8652" y1="312.8242" y2="332.8242"/><polygon fill="#181818" points="138.8652,322.8242,142.8652,332.8242,146.8652,322.8242,142.8652,326.8242" style="stroke:#181818;stroke-width:1;"/><line style="stroke:#181818;stroke-width:1;" x1="142.8652" x2="142.8652" y1="137.9375" y2="157.9375"/><polygon fill="#181818" points="138.8652,147.9375,142.8652,157.9375,146.8652,147.9375,142.8652,151.9375" style="stroke:#181818;stroke-width:1;"/><line style="stroke:#181818;stroke-width:1;" x1="69.8818" x2="69.8818" y1="454.7617" y2="474.7617"/><polygon fill="#181818" points="65.8818,464.7617,69.8818,474.7617,73.8818,464.7617,69.8818,468.7617" style="stroke:#181818;stroke-width:1;"/><line style="stroke:#181818;stroke-width:1;" x1="88.7585" x2="69.8818" y1="398.793" y2="398.793"/><line style="stroke:#181818;stroke-width:1;" x1="69.8818" x2="69.8818" y1="398.793" y2="420.793"/><polygon fill="#181818" points="65.8818,410.793,69.8818,420.793,73.8818,410.793,69.8818,414.793" style="stroke:#181818;stroke-width:1;"/><line style="stroke:#181818;stroke-width:1;" x1="196.9719" x2="215.8486" y1="398.793" y2="398.793"/><line style="stroke:#181818;stroke-width:1;" x1="215.8486" x2="215.8486" y1="398.793" y2="420.793"/><polygon fill="#181818" points="211.8486,410.793,215.8486,420.793,219.8486,410.793,215.8486,414.793" style="stroke:#181818;stroke-width:1;"/><line style="stroke:#181818;stroke-width:1;" x1="69.8818" x2="69.8818" y1="508.7305" y2="526.7305"/><line style="stroke:#181818;stroke-width:1;" x1="69.8818" x2="130.8652" y1="526.7305" y2="526.7305"/><polygon fill="#181818" points="120.8652,522.7305,130.8652,526.7305,120.8652,530.7305,124.8652,526.7305" style="stroke:#181818;stroke-width:1;"/><line style="stroke:#181818;stroke-width:1;" x1="215.8486" x2="215.8486" y1="454.7617" y2="526.7305"/><line style="stroke:#181818;stroke-width:1;" x1="215.8486" x2="154.8652" y1="526.7305" y2="526.7305"/><polygon fill="#181818" points="164.8652,522.7305,154.8652,526.7305,164.8652,530.7305,160.8652,526.7305" style="stroke:#181818;stroke-width:1;"/><line style="stroke:#181818;stroke-width:1;" x1="142.8652" x2="142.8652" y1="366.793" y2="386.793"/><polygon fill="#181818" points="138.8652,376.793,142.8652,386.793,146.8652,376.793,142.8652,380.793" style="stroke:#181818;stroke-width:1;"/><line style="stroke:#181818;stroke-width:1;" x1="142.8652" x2="142.8652" y1="538.7305" y2="558.7305"/><polygon fill="#181818" points="138.8652,548.7305,142.8652,558.7305,146.8652,548.7305,142.8652,552.7305" style="stroke:#181818;stroke-width:1;"/><?plantuml-src POv12i8m44NtESKisoia2v7Y1HJTJvEf7KYJaeb5l4tnABsOQQ4Wkdp3_CUJZ2ahVIPBBIMW0Ta3WL3eqIXzGyyE4rWSnYX6AUwWQZQ02LySvL13xYb0TU6XLW3wzEIMYocbQ0fBZgEYuBXJNxf4Ze9bvDrvbSSo9uumBNFvYN_Q9d4P2eaixqsiZxR0UcF9fTieya8_1U08VBnpC7l3slC1?></g></svg>