<?plantuml 1.2026.2beta3?><svg xmlns="http://www.w3.org/2000/svg" xmlns:xlink="http://www.w3.org/1999/xlink" contentStyleType="text/css" data-diagram-type="ACTIVITY" height="254px" preserveAspectRatio="none" style="width:314px;height:254px;background:#FFFFFF;" version="1.1" viewBox="0 0 314 254" width="314px" zoomAndPan="magnify"><defs/><g><ellipse cx="145.4756" cy="20" fill="#222222" rx="10" ry="10" style="stroke:#222222;stroke-width:1;"/><rect fill="#F1F1F1" height="33.9688" rx="12.5" ry="12.5" style="stroke:#181818;stroke-width:0.5;" width="148.6133" x="71.1689" y="50"/><text fill="#000000" font-family="sans-serif" font-size="12" lengthAdjust="spacing" textLength="128.6133" x="81.1689" y="71.1387">Verificar sess&#227;o ativa</text><polygon fill="#F1F1F1" points="104.9238,103.9688,186.0273,103.9688,198.0273,115.9688,186.0273,127.9688,104.9238,127.9688,92.9238,115.9688,104.9238,103.9688" style="stroke:#181818;stroke-width:0.5;"/><text fill="#000000" font-family="sans-serif" font-size="11" lengthAdjust="spacing" textLength="81.1035" x="104.9238" y="119.7769">Sess&#227;o v&#225;lida?</text><text fill="#000000" font-family="sans-serif" font-size="11" lengthAdjust="spacing" textLength="20.7539" x="72.1699" y="113.3745">Sim</text><rect fill="#F1F1F1" height="33.9688" rx="12.5" ry="12.5" style="stroke:#181818;stroke-width:0.5;" width="112.543" x="11" y="137.9688"/><text fill="#000000" font-family="sans-serif" font-size="12" lengthAdjust="spacing" textLength="92.543" x="21" y="159.1074">Permitir acesso</text><rect fill="#F1F1F1" height="33.9688" rx="12.5" ry="12.5" style="stroke:#181818;stroke-width:0.5;" width="160.2734" x="143.543" y="137.9688"/><text fill="#000000" font-family="sans-serif" font-size="12" lengthAdjust="spacing" textLength="140.2734" x="153.543" y="159.1074">Redirecionar para login</text><polygon fill="#F1F1F1" points="145.4756,177.9375,157.4756,189.9375,145.4756,201.9375,133.4756,189.9375,145.4756,177.9375" style="stroke:#181818;stroke-width:0.5;"/><ellipse cx="145.4756" cy="232.9375" fill="none" rx="11" ry="11" style="stroke:#222222;stroke-width:1;"/><ellipse cx="145.4756" cy="232.9375" fill="#222222" rx="6" ry="6" style="stroke:#222222;stroke-width:1;"/><line style="stroke:#181818;stroke-width:1;" x1="145.4756" x2="145.4756" y1="30" y2="50"/><polygon fill="#181818" points="141.4756,40,145.4756,50,149.4756,40,145.4756,44" style="stroke:#181818;stroke-width:1;"/><line style="stroke:#181818;stroke-width:1;" x1="92.9238" x2="67.2715" y1="115.9688" y2="115.9688"/><line style="stroke:#181818;stroke-width:1;" x1="67.2715" x2="67.2715" y1="115.9688" y2="137.9688"/><polygon fill="#181818" points="63.2715,127.9688,67.2715,137.9688,71.2715,127.9688,67.2715,131.9688" style="stroke:#181818;stroke-width:1;"/><line style="stroke:#181818;stroke-width:1;" x1="198.0273" x2="223.6797" y1="115.9688" y2="115.9688"/><line style="stroke:#181818;stroke-width:1;" x1="223.6797" x2="223.6797" y1="115.9688" y2="137.9688"/><polygon fill="#181818" points="219.6797,127.9688,223.6797,137.9688,227.6797,127.9688,223.6797,131.9688" style="stroke:#181818;stroke-width:1;"/><line style="stroke:#181818;stroke-width:1;" x1="67.2715" x2="67.2715" y1="171.9375" y2="189.9375"/><line style="stroke:#181818;stroke-width:1;" x1="67.2715" x2="133.4756" y1="189.9375" y2="189.9375"/><polygon fill="#181818" points="123.4756,185.9375,133.4756,189.9375,123.4756,193.9375,127.4756,189.9375" style="stroke:#181818;stroke-width:1;"/><line style="stroke:#181818;stroke-width:1;" x1="223.6797" x2="223.6797" y1="171.9375" y2="189.9375"/><line style="stroke:#181818;stroke-width:1;" x1="223.6797" x2="157.4756" y1="189.9375" y2="189.9375"/><polygon fill="#181818" points="167.4756,185.9375,157.4756,189.9375,167.4756,193.9375,163.4756,189.9375" style="stroke:#181818;stroke-width:1;"/><line style="stroke:#181818;stroke-width:1;" x1="145.4756" x2="145.4756" y1="83.9688" y2="103.9688"/><polygon fill="#181818" points="141.4756,93.9688,145.4756,103.9688,149.4756,93.9688,145.4756,97.9688" style="stroke:#181818;stroke-width:1;"/><line style="stroke:#181818;stroke-width:1;" x1="145.4756" x2="145.4756" y1="201.9375" y2="221.9375"/><polygon fill="#181818" points="141.4756,211.9375,145.4756,221.9375,149.4756,211.9375,145.4756,215.9375" style="stroke:#181818;stroke-width:1;"/><?plantuml-src BOp13S8m34Nldi97ka9xO0K44dShSU1BQLBPLlT1ZDB56YIkxpqz3x6W-Qc6WYJ6hkx7jxC4Tbc8KFZo-BFz-5HakKuSRss3Ovs8URwfhGWOInfbNqYhwq_SDSCqeRTntiI4Qt-XZQ1b52AFlfq0?></g></svg>