<?plantuml 1.2026.2beta3?><svg xmlns="http://www.w3.org/2000/svg" xmlns:xlink="http://www.w3.org/1999/xlink" contentStyleType="text/css" data-diagram-type="ACTIVITY" height="527px" preserveAspectRatio="none" style="width:218px;height:527px;background:#FFFFFF;" version="1.1" viewBox="0 0 218 527" width="218px" zoomAndPan="magnify"><defs/><g><ellipse cx="105.7148" cy="20" fill="#222222" rx="10" ry="10" style="stroke:#222222;stroke-width:1;"/><rect fill="#F1F1F1" height="33.9688" rx="12.5" ry="12.5" style="stroke:#181818;stroke-width:0.5;" width="106.543" x="52.4434" y="50"/><text fill="#000000" font-family="sans-serif" font-size="12" lengthAdjust="spacing" textLength="86.543" x="62.4434" y="71.1387">Receber email</text><rect fill="#F1F1F1" height="33.9688" rx="12.5" ry="12.5" style="stroke:#181818;stroke-width:0.5;" width="99.043" x="56.1934" y="103.9688"/><text fill="#000000" font-family="sans-serif" font-size="12" lengthAdjust="spacing" textLength="79.043" x="66.1934" y="125.1074">Validar email</text><rect fill="#F1F1F1" height="33.9688" rx="12.5" ry="12.5" style="stroke:#181818;stroke-width:0.5;" width="82.3086" x="64.5605" y="206.3398"/><text fill="#000000" font-family="sans-serif" font-size="12" lengthAdjust="spacing" textLength="62.3086" x="74.5605" y="227.4785">Exibir erro</text><ellipse cx="105.7148" cy="279.8242" fill="none" rx="11" ry="11" style="stroke:#222222;stroke-width:1;"/><ellipse cx="105.7148" cy="279.8242" fill="#222222" rx="6" ry="6" style="stroke:#222222;stroke-width:1;"/><polygon fill="#F1F1F1" points="42.4299,157.9375,168.9998,157.9375,180.9998,169.9375,168.9998,181.9375,42.4299,181.9375,30.4299,169.9375,42.4299,157.9375" style="stroke:#181818;stroke-width:0.5;"/><text fill="#000000" font-family="sans-serif" font-size="11" lengthAdjust="spacing" textLength="20.7539" x="109.7148" y="192.1479">Sim</text><text fill="#000000" font-family="sans-serif" font-size="11" lengthAdjust="spacing" textLength="126.5698" x="42.4299" y="173.7456">Email n&#227;o encontrado?</text><rect fill="#F1F1F1" height="33.9688" rx="12.5" ry="12.5" style="stroke:#181818;stroke-width:0.5;" width="189.4297" x="11" y="332.8242"/><text fill="#000000" font-family="sans-serif" font-size="12" lengthAdjust="spacing" textLength="169.4297" x="21" y="353.9629">Gerar token de recupera&#231;&#227;o</text><rect fill="#F1F1F1" height="33.9688" rx="12.5" ry="12.5" style="stroke:#181818;stroke-width:0.5;" width="94.8184" x="58.3057" y="386.793"/><text fill="#000000" font-family="sans-serif" font-size="12" lengthAdjust="spacing" textLength="74.8184" x="68.3057" y="407.9316">Enviar email</text><rect fill="#F1F1F1" height="33.9688" rx="12.5" ry="12.5" style="stroke:#181818;stroke-width:0.5;" width="132.0898" x="39.6699" y="440.7617"/><text fill="#000000" font-family="sans-serif" font-size="12" lengthAdjust="spacing" textLength="112.0898" x="49.6699" y="461.9004">Exibir confirma&#231;&#227;o</text><ellipse cx="105.7148" cy="505.7305" fill="none" rx="11" ry="11" style="stroke:#222222;stroke-width:1;"/><ellipse cx="105.7148" cy="505.7305" fill="#222222" rx="6" ry="6" style="stroke:#222222;stroke-width:1;"/><line style="stroke:#181818;stroke-width:1;" x1="105.7148" x2="105.7148" y1="30" y2="50"/><polygon fill="#181818" points="101.7148,40,105.7148,50,109.7148,40,105.7148,44" style="stroke:#181818;stroke-width:1;"/><line style="stroke:#181818;stroke-width:1;" x1="105.7148" x2="105.7148" y1="83.9688" y2="103.9688"/><polygon fill="#181818" points="101.7148,93.9688,105.7148,103.9688,109.7148,93.9688,105.7148,97.9688" style="stroke:#181818;stroke-width:1;"/><line style="stroke:#181818;stroke-width:1;" x1="105.7148" x2="105.7148" y1="240.3086" y2="268.8242"/><polygon fill="#181818" points="101.7148,258.8242,105.7148,268.8242,109.7148,258.8242,105.7148,262.8242" style="stroke:#181818;stroke-width:1;"/><line style="stroke:#181818;stroke-width:1;" x1="105.7148" x2="105.7148" y1="181.9375" y2="206.3398"/><polygon fill="#181818" points="101.7148,196.3398,105.7148,206.3398,109.7148,196.3398,105.7148,200.3398" style="stroke:#181818;stroke-width:1;"/><line style="stroke:#181818;stroke-width:1;" x1="180.9998" x2="192.9998" y1="169.9375" y2="169.9375"/><polygon fill="#181818" points="188.9998,238.8242,192.9998,248.8242,196.9998,238.8242,192.9998,242.8242" style="stroke:#181818;stroke-width:1;"/><line style="stroke:#181818;stroke-width:1;" x1="192.9998" x2="192.9998" y1="169.9375" y2="312.8242"/><line style="stroke:#181818;stroke-width:1;" x1="192.9998" x2="105.7148" y1="312.8242" y2="312.8242"/><line style="stroke:#181818;stroke-width:1;" x1="105.7148" x2="105.7148" y1="312.8242" y2="332.8242"/><polygon fill="#181818" points="101.7148,322.8242,105.7148,332.8242,109.7148,322.8242,105.7148,326.8242" style="stroke:#181818;stroke-width:1;"/><line style="stroke:#181818;stroke-width:1;" x1="105.7148" x2="105.7148" y1="137.9375" y2="157.9375"/><polygon fill="#181818" points="101.7148,147.9375,105.7148,157.9375,109.7148,147.9375,105.7148,151.9375" style="stroke:#181818;stroke-width:1;"/><line style="stroke:#181818;stroke-width:1;" x1="105.7148" x2="105.7148" y1="366.793" y2="386.793"/><polygon fill="#181818" points="101.7148,376.793,105.7148,386.793,109.7148,376.793,105.7148,380.793" style="stroke:#181818;stroke-width:1;"/><line style="stroke:#181818;stroke-width:1;" x1="105.7148" x2="105.7148" y1="420.7617" y2="440.7617"/><polygon fill="#181818" points="101.7148,430.7617,105.7148,440.7617,109.7148,430.7617,105.7148,434.7617" style="stroke:#181818;stroke-width:1;"/><line style="stroke:#181818;stroke-width:1;" x1="105.7148" x2="105.7148" y1="474.7305" y2="494.7305"/><polygon fill="#181818" points="101.7148,484.7305,105.7148,494.7305,109.7148,484.7305,105.7148,488.7305" style="stroke:#181818;stroke-width:1;"/><?plantuml-src HOqn3i8m34Ltdy9ZUuLqO8hOGM9F4qTOD4xb1jJxC72GNWntA6p-rl_lBIre0tUXI2CfKWay3U1kOU8KVXauO-Vt6sLxLoI9LPg6L4yzjZi9TbSkFI0wl_B8DbIjW-MbrHb84cS0ToOrPgiF6oH2fVYSxRLzZ6bIBo_-Em-IcJ9hELexy0i0?></g></svg>